{
  "accessors": [
    {
      "bufferView": 2,
      "componentType": 5126,
      "count": 12,
      "max": [
        -20.0,
        15.0,
        30.0
      ],
      "min": [
        -50.0,
        15.0,
        -10.0
      ],
      "type": "VEC3"
    },
    {
      "bufferView": 2,
      "byteOffset": 144,
      "componentType": 5126,
      "count": 12,
      "max": [
        0.0,
        1.0,
        0.0
      ],
      "min": [
        0.0,
        1.0,
        0.0
      ],
      "type": "VEC3"
    },
    {
      "bufferView": 1,
      "componentType": 5126,
      "count": 12,
      "max": [
        0.0,
        1.0
      ],
      "min": [
        0.0,
        1.0
      ],
      "type": "VEC2"
    },
    {
      "bufferView": 1,
      "byteOffset": 96,
      "componentType": 5126,
      "count": 12,
      "max": [
        1.0,
        1.0
      ],
      "min": [
        0.0,
        0.0
      ],
      "type": "VEC2"
    },
    {
      "bufferView": 1,
      "byteOffset": 192,
      "componentType": 5126,
      "count": 12,
      "max": [
        0.0,
        1.0
      ],
      "min": [
        0.0,
        1.0
      ],
      "type": "VEC2"
    },
    {
      "bufferView": 1,
      "byteOffset": 288,
      "componentType": 5126,
      "count": 12,
      "max": [
        0.0,
        1.0
      ],
      "min": [
        0.0,
        1.0
      ],
      "type": "VEC2"
    },
    {
      "bufferView": 0,
      "componentType": 5125,
      "count": 30,
      "type": "SCALAR"
    },
    {
      "bufferView": 2,
      "byteOffset": 288,
      "componentType": 5126,
      "count": 65532,
      "max": [
        -18.19407081604004,
        26.677440643310547,
        31.80592918395996
      ],
      "min": [
        -51.661766052246094,
        0.0,
        -11.661765098571777
      ],
      "type": "VEC3"
    },
    {
      "bufferView": 2,
      "byteOffset": 786672,
      "componentType": 5126,
      "count": 65532,
      "max": [
        1.0,
        1.0,
        1.0
      ],
      "min": [
        -1.0,
        -1.0,
        -1.0
      ],
      "type": "VEC3"
    },
    {
      "bufferView": 3,
      "componentType": 5126,
      "count": 65532,
      "max": [
        1.0,
        1.0,
        1.0,
        1.0
      ],
      "min": [
        -1.0,
        -1.0,
        -1.0,
        -1.0
      ],
      "type": "VEC4"
    },
    {
      "bufferView": 1,
      "byteOffset": 384,
      "componentType": 5126,
      "count": 65532,
      "max": [
        1.834671974182129,
        8.104509353637695
      ],
      "min": [
        -1.864626169204712,
        -3.5732502937316895
      ],
      "type": "VEC2"
    },
    {
      "bufferView": 1,
      "byteOffset": 524640,
      "componentType": 5126,
      "count": 65532,
      "max": [
        1.834671974182129,
        8.104509353637695
      ],
      "min": [
        -1.864626169204712,
        -3.5732502937316895
      ],
      "type": "VEC2"
    },
    {
      "bufferView": 1,
      "byteOffset": 1048896,
      "componentType": 5126,
      "count": 65532,
      "max": [
        1.834671974182129,
        8.104509353637695
      ],
      "min": [
        -1.864626169204712,
        -3.5732502937316895
      ],
      "type": "VEC2"
    },
    {
      "bufferView": 1,
      "byteOffset": 1573152,
      "componentType": 5126,
      "count": 65532,
      "max": [
        1.4683752059936523,
        2.4934539794921875
      ],
      "min": [
        -0.1905648112297058,
        -1.4556901454925537
      ],
      "type": "VEC2"
    },
    {
      "bufferView": 1,
      "byteOffset": 2097408,
      "componentType": 5126,
      "count": 65532,
      "max": [
        0.9484707117080688,
        1.0
      ],
      "min": [
        0.0,
        0.000499427318572998
      ],
      "type": "VEC2"
    },
    {
      "bufferView": 1,
      "byteOffset": 2621664,
      "componentType": 5126,
      "count": 65532,
      "max": [
        1.196437120437622,
        1.0948543548583984
      ],
      "min": [
        -0.10566306114196777,
        -0.19643712043762207
      ],
      "type": "VEC2"
    },
    {
      "bufferView": 1,
      "byteOffset": 3145920,
      "componentType": 5126,
      "count": 65532,
      "max": [
        1.834671974182129,
        8.104509353637695
      ],
      "min": [
        -1.864626169204712,
        -3.5732502937316895
      ],
      "type": "VEC2"
    },
    {
      "bufferView": 0,
      "byteOffset": 120,
      "componentType": 5125,
      "count": 178053,
      "type": "SCALAR"
    },
    {
      "bufferView": 2,
      "byteOffset": 1573056,
      "componentType": 5126,
      "count": 50164,
      "max": [
        -19.91494369506836,
        26.677440643310547,
        30.08505630493164
      ],
      "min": [
        -51.805931091308594,
        3.0447440147399902,
        -11.805930137634277
      ],
      "type": "VEC3"
    },
    {
      "bufferView": 2,
      "byteOffset": 2175024,
      "componentType": 5126,
      "count": 50164,
      "max": [
        1.0,
        1.0,
        1.0
      ],
      "min": [
        -1.0,
        -1.0,
        -1.0
      ],
      "type": "VEC3"
    },
    {
      "bufferView": 3,
      "byteOffset": 1048512,
      "componentType": 5126,
      "count": 50164,
      "max": [
        1.0,
        1.0,
        1.0,
        1.0
      ],
      "min": [
        -1.0,
        -1.0,
        -1.0,
        -1.0
      ],
      "type": "VEC4"
    },
    {
      "bufferView": 1,
      "byteOffset": 3670176,
      "componentType": 5126,
      "count": 50164,
      "max": [
        2.3390555381774902,
        8.104509353637695
      ],
      "min": [
        -1.864626169204712,
        -3.5732502937316895
      ],
      "type": "VEC2"
    },
    {
      "bufferView": 1,
      "byteOffset": 4071488,
      "componentType": 5126,
      "count": 50164,
      "max": [
        2.3390555381774902,
        8.104509353637695
      ],
      "min": [
        -1.864626169204712,
        -3.5732502937316895
      ],
      "type": "VEC2"
    },
    {
      "bufferView": 1,
      "byteOffset": 4472800,
      "componentType": 5126,
      "count": 50164,
      "max": [
        2.3390555381774902,
        8.104509353637695
      ],
      "min": [
        -1.864626169204712,
        -3.5732502937316895
      ],
      "type": "VEC2"
    },
    {
      "bufferView": 1,
      "byteOffset": 4874112,
      "componentType": 5126,
      "count": 50164,
      "max": [
        1.4683752059936523,
        2.4934539794921875
      ],
      "min": [
        -0.1905648112297058,
        -1.4556901454925537
      ],
      "type": "VEC2"
    },
    {
      "bufferView": 1,
      "byteOffset": 5275424,
      "componentType": 5126,
      "count": 50164,
      "max": [
        0.9484707117080688,
        1.0
      ],
      "min": [
        0.0,
        0.000499427318572998
      ],
      "type": "VEC2"
    },
    {
      "bufferView": 1,
      "byteOffset": 5676736,
      "componentType": 5126,
      "count": 50164,
      "max": [
        0.726011335849762,
        1.0
      ],
      "min": [
        0.0,
        0.24038100242614746
      ],
      "type": "VEC2"
    },
    {
      "bufferView": 1,
      "byteOffset": 6078048,
      "componentType": 5126,
      "count": 50164,
      "max": [
        2.3390555381774902,
        8.104509353637695
      ],
      "min": [
        -1.864626169204712,
        -3.5732502937316895
      ],
      "type": "VEC2"
    },
    {
      "bufferView": 0,
      "byteOffset": 712332,
      "componentType": 5125,
      "count": 115371,
      "type": "SCALAR"
    },
    {
      "bufferView": 2,
      "byteOffset": 2776992,
      "componentType": 5126,
      "count": 1788,
      "max": [
        -19.901723861694336,
        16.11521339416504,
        30.098276138305664
      ],
      "min": [
        -50.09827423095703,
        0.43250590562820435,
        -10.098275184631348
      ],
      "type": "VEC3"
    },
    {
      "bufferView": 2,
      "byteOffset": 2798448,
      "componentType": 5126,
      "count": 1788,
      "max": [
        1.0,
        0.9364113807678223,
        1.0
      ],
      "min": [
        -1.0,
        0.0,
        -1.0
      ],
      "type": "VEC3"
    },
    {
      "bufferView": 1,
      "byteOffset": 6479360,
      "componentType": 5126,
      "count": 1788,
      "max": [
        0.0,
        1.0
      ],
      "min": [
        0.0,
        1.0
      ],
      "type": "VEC2"
    },
    {
      "bufferView": 1,
      "byteOffset": 6493664,
      "componentType": 5126,
      "count": 1788,
      "max": [
        0.8193808197975159,
        1.0
      ],
      "min": [
        0.0,
        0.07664340734481812
      ],
      "type": "VEC2"
    },
    {
      "bufferView": 1,
      "byteOffset": 6507968,
      "componentType": 5126,
      "count": 1788,
      "max": [
        0.0,
        1.0
      ],
      "min": [
        0.0,
        1.0
      ],
      "type": "VEC2"
    },
    {
      "bufferView": 1,
      "byteOffset": 6522272,
      "componentType": 5126,
      "count": 1788,
      "max": [
        0.0,
        1.0
      ],
      "min": [
        0.0,
        1.0
      ],
      "type": "VEC2"
    },
    {
      "bufferView": 0,
      "byteOffset": 1173816,
      "componentType": 5125,
      "count": 3528,
      "type": "SCALAR"
    },
    {
      "bufferView": 2,
      "byteOffset": 2819904,
      "componentType": 5126,
      "count": 1346,
      "max": [
        -46.399959564208984,
        17.428707122802734,
        8.600040435791016
      ],
      "min": [
        -48.600040435791016,
        14.999755859375,
        6.399959564208984
      ],
      "type": "VEC3"
    },
    {
      "bufferView": 2,
      "byteOffset": 2836056,
      "componentType": 5126,
      "count": 1346,
      "max": [
        1.0,
        1.0,
        1.0
      ],
      "min": [
        -1.0,
        -1.0,
        -1.0
      ],
      "type": "VEC3"
    },
    {
      "bufferView": 3,
      "byteOffset": 1851136,
      "componentType": 5126,
      "count": 1346,
      "max": [
        1.0,
        1.0,
        1.0,
        1.0
      ],
      "min": [
        -1.0,
        -1.0,
        -1.0,
        1.0
      ],
      "type": "VEC4"
    },
    {
      "bufferView": 1,
      "byteOffset": 6536576,
      "componentType": 5126,
      "count": 1346,
      "max": [
        0.9751179218292236,
        1.0
      ],
      "min": [
        0.0,
        -1.1920928955078125e-07
      ],
      "type": "VEC2"
    },
    {
      "bufferView": 1,
      "byteOffset": 6547344,
      "componentType": 5126,
      "count": 1346,
      "max": [
        0.0,
        1.0
      ],
      "min": [
        0.0,
        1.0
      ],
      "type": "VEC2"
    },
    {
      "bufferView": 1,
      "byteOffset": 6558112,
      "componentType": 5126,
      "count": 1346,
      "max": [
        0.0,
        1.0
      ],
      "min": [
        0.0,
        1.0
      ],
      "type": "VEC2"
    },
    {
      "bufferView": 1,
      "byteOffset": 6568880,
      "componentType": 5126,
      "count": 1346,
      "max": [
        0.0,
        1.0
      ],
      "min": [
        0.0,
        1.0
      ],
      "type": "VEC2"
    },
    {
      "bufferView": 1,
      "byteOffset": 6579648,
      "componentType": 5126,
      "count": 1346,
      "max": [
        0.9751179218292236,
        1.0
      ],
      "min": [
        0.0,
        -1.1920928955078125e-07
      ],
      "type": "VEC2"
    },
    {
      "bufferView": 1,
      "byteOffset": 6590416,
      "componentType": 5126,
      "count": 1346,
      "max": [
        0.9751179218292236,
        1.0
      ],
      "min": [
        0.0,
        -1.1920928955078125e-07
      ],
      "type": "VEC2"
    },
    {
      "bufferView": 1,
      "byteOffset": 6601184,
      "componentType": 5126,
      "count": 1346,
      "max": [
        0.9751179218292236,
        1.0
      ],
      "min": [
        0.0,
        -1.1920928955078125e-07
      ],
      "type": "VEC2"
    },
    {
      "bufferView": 0,
      "byteOffset": 1187928,
      "componentType": 5125,
      "count": 2274,
      "type": "SCALAR"
    },
    {
      "bufferView": 2,
      "byteOffset": 2852208,
      "componentType": 5126,
      "count": 22776,
      "max": [
        -19.91494369506836,
        15.0,
        30.030000686645508
      ],
      "min": [
        -50.08505630493164,
        3.0,
        -10.08505630493164
      ],
      "type": "VEC3"
    },
    {
      "bufferView": 2,
      "byteOffset": 3125520,
      "componentType": 5126,
      "count": 22776,
      "max": [
        1.0,
        1.0,
        1.0
      ],
      "min": [
        -1.0,
        -1.0,
        -1.0
      ],
      "type": "VEC3"
    },
    {
      "bufferView": 3,
      "byteOffset": 1872672,
      "componentType": 5126,
      "count": 22776,
      "max": [
        1.0,
        1.0,
        1.0,
        1.0
      ],
      "min": [
        -1.0,
        -1.0,
        -1.0,
        1.0
      ],
      "type": "VEC4"
    },
    {
      "bufferView": 1,
      "byteOffset": 6611952,
      "componentType": 5126,
      "count": 22776,
      "max": [
        2.0,
        2.1291651725769043
      ],
      "min": [
        -1.0,
        -1.0963423252105713
      ],
      "type": "VEC2"
    },
    {
      "bufferView": 1,
      "byteOffset": 6794160,
      "componentType": 5126,
      "count": 22776,
      "max": [
        0.0,
        1.0
      ],
      "min": [
        0.0,
        1.0
      ],
      "type": "VEC2"
    },
    {
      "bufferView": 1,
      "byteOffset": 6976368,
      "componentType": 5126,
      "count": 22776,
      "max": [
        0.0,
        1.0
      ],
      "min": [
        0.0,
        1.0
      ],
      "type": "VEC2"
    },
    {
      "bufferView": 1,
      "byteOffset": 7158576,
      "componentType": 5126,
      "count": 22776,
      "max": [
        0.0,
        1.0
      ],
      "min": [
        0.0,
        1.0
      ],
      "type": "VEC2"
    },
    {
      "bufferView": 1,
      "byteOffset": 7340784,
      "componentType": 5126,
      "count": 22776,
      "max": [
        2.0,
        2.1291651725769043
      ],
      "min": [
        -1.0,
        -1.0963423252105713
      ],
      "type": "VEC2"
    },
    {
      "bufferView": 1,
      "byteOffset": 7522992,
      "componentType": 5126,
      "count": 22776,
      "max": [
        2.0,
        2.1291651725769043
      ],
      "min": [
        -1.0,
        -1.0963423252105713
      ],
      "type": "VEC2"
    },
    {
      "bufferView": 1,
      "byteOffset": 7705200,
      "componentType": 5126,
      "count": 22776,
      "max": [
        2.0,
        2.1291651725769043
      ],
      "min": [
        -1.0,
        -1.0963423252105713
      ],
      "type": "VEC2"
    },
    {
      "bufferView": 0,
      "byteOffset": 1197024,
      "componentType": 5125,
      "count": 48288,
      "type": "SCALAR"
    },
    {
      "bufferView": 2,
      "byteOffset": 3398832,
      "componentType": 5126,
      "count": 25728,
      "max": [
        -19.940000534057617,
        15.0,
        30.059999465942383
      ],
      "min": [
        -50.060001373291016,
        3.0,
        -10.0600004196167
      ],
      "type": "VEC3"
    },
    {
      "bufferView": 2,
      "byteOffset": 3707568,
      "componentType": 5126,
      "count": 25728,
      "max": [
        0.9973675012588501,
        0.9954003095626831,
        0.9973675012588501
      ],
      "min": [
        -0.9973716735839844,
        -0.995395839214325,
        -0.9973716735839844
      ],
      "type": "VEC3"
    },
    {
      "bufferView": 3,
      "byteOffset": 2237088,
      "componentType": 5126,
      "count": 25728,
      "max": [
        0.9991092681884766,
        0.9983457326889038,
        0.999138593673706,
        1.0
      ],
      "min": [
        -0.9991093277931213,
        -0.9983457326889038,
        -0.999138593673706,
        1.0
      ],
      "type": "VEC4"
    },
    {
      "bufferView": 1,
      "byteOffset": 7887408,
      "componentType": 5126,
      "count": 25728,
      "max": [
        0.8450084328651428,
        2.0000007152557373
      ],
      "min": [
        0.1549915373325348,
        -1.0
      ],
      "type": "VEC2"
    },
    {
      "bufferView": 1,
      "byteOffset": 8093232,
      "componentType": 5126,
      "count": 25728,
      "max": [
        0.0,
        1.0
      ],
      "min": [
        0.0,
        1.0
      ],
      "type": "VEC2"
    },
    {
      "bufferView": 1,
      "byteOffset": 8299056,
      "componentType": 5126,
      "count": 25728,
      "max": [
        0.0,
        1.0
      ],
      "min": [
        0.0,
        1.0
      ],
      "type": "VEC2"
    },
    {
      "bufferView": 1,
      "byteOffset": 8504880,
      "componentType": 5126,
      "count": 25728,
      "max": [
        0.0,
        1.0
      ],
      "min": [
        0.0,
        1.0
      ],
      "type": "VEC2"
    },
    {
      "bufferView": 1,
      "byteOffset": 8710704,
      "componentType": 5126,
      "count": 25728,
      "max": [
        0.8450084328651428,
        2.0000007152557373
      ],
      "min": [
        0.1549915373325348,
        -1.0
      ],
      "type": "VEC2"
    },
    {
      "bufferView": 1,
      "byteOffset": 8916528,
      "componentType": 5126,
      "count": 25728,
      "max": [
        0.8450084328651428,
        2.0000007152557373
      ],
      "min": [
        0.1549915373325348,
        -1.0
      ],
      "type": "VEC2"
    },
    {
      "bufferView": 1,
      "byteOffset": 9122352,
      "componentType": 5126,
      "count": 25728,
      "max": [
        0.8450084328651428,
        2.0000007152557373
      ],
      "min": [
        0.1549915373325348,
        -1.0
      ],
      "type": "VEC2"
    },
    {
      "bufferView": 0,
      "byteOffset": 1390176,
      "componentType": 5125,
      "count": 63360,
      "type": "SCALAR"
    },
    {
      "bufferView": 2,
      "byteOffset": 4016304,
      "componentType": 5126,
      "count": 336,
      "max": [
        -18.292579650878906,
        7.423656463623047,
        31.707420349121094
      ],
      "min": [
        -51.707420349121094,
        3.303945302963257,
        -11.707420349121094
      ],
      "type": "VEC3"
    },
    {
      "bufferView": 2,
      "byteOffset": 4020336,
      "componentType": 5126,
      "count": 336,
      "max": [
        1.0,
        1.0,
        1.0
      ],
      "min": [
        -1.0,
        -1.0,
        -1.0
      ],
      "type": "VEC3"
    },
    {
      "bufferView": 1,
      "byteOffset": 9328176,
      "componentType": 5126,
      "count": 336,
      "max": [
        0.0,
        1.0
      ],
      "min": [
        0.0,
        1.0
      ],
      "type": "VEC2"
    },
    {
      "bufferView": 1,
      "byteOffset": 9330864,
      "componentType": 5126,
      "count": 336,
      "max": [
        3.4475131034851074,
        3.4475128650665283
      ],
      "min": [
        -2.4475128650665283,
        -2.4475131034851074
      ],
      "type": "VEC2"
    },
    {
      "bufferView": 1,
      "byteOffset": 9333552,
      "componentType": 5126,
      "count": 336,
      "max": [
        0.0,
        1.0
      ],
      "min": [
        0.0,
        1.0
      ],
      "type": "VEC2"
    },
    {
      "bufferView": 1,
      "byteOffset": 9336240,
      "componentType": 5126,
      "count": 336,
      "max": [
        0.0,
        1.0
      ],
      "min": [
        0.0,
        1.0
      ],
      "type": "VEC2"
    },
    {
      "bufferView": 0,
      "byteOffset": 1643616,
      "componentType": 5125,
      "count": 504,
      "type": "SCALAR"
    },
    {
      "bufferView": 2,
      "byteOffset": 4024368,
      "componentType": 5126,
      "count": 65534,
      "max": [
        -18.374324798583984,
        9.465858459472656,
        31.625675201416016
      ],
      "min": [
        -51.48015213012695,
        3.3475921154022217,
        -11.317633628845215
      ],
      "type": "VEC3"
    },
    {
      "bufferView": 2,
      "byteOffset": 4810776,
      "componentType": 5126,
      "count": 65534,
      "max": [
        1.0,
        1.0,
        1.0
      ],
      "min": [
        -1.0,
        -1.0,
        -1.0
      ],
      "type": "VEC3"
    },
    {
      "bufferView": 1,
      "byteOffset": 9338928,
      "componentType": 5126,
      "count": 65534,
      "max": [
        0.0,
        1.0
      ],
      "min": [
        0.0,
        1.0
      ],
      "type": "VEC2"
    },
    {
      "bufferView": 1,
      "byteOffset": 9863200,
      "componentType": 5126,
      "count": 65534,
      "max": [
        0.0,
        1.0
      ],
      "min": [
        0.0,
        1.0
      ],
      "type": "VEC2"
    },
    {
      "bufferView": 1,
      "byteOffset": 10387472,
      "componentType": 5126,
      "count": 65534,
      "max": [
        0.0,
        1.0
      ],
      "min": [
        0.0,
        1.0
      ],
      "type": "VEC2"
    },
    {
      "bufferView": 1,
      "byteOffset": 10911744,
      "componentType": 5126,
      "count": 65534,
      "max": [
        0.0,
        1.0
      ],
      "min": [
        0.0,
        1.0
      ],
      "type": "VEC2"
    },
    {
      "bufferView": 0,
      "byteOffset": 1645632,
      "componentType": 5125,
      "count": 98265,
      "type": "SCALAR"
    },
    {
      "bufferView": 2,
      "byteOffset": 5597184,
      "componentType": 5126,
      "count": 65532,
      "max": [
        -23.294631958007813,
        9.465858459472656,
        27.926767349243164
      ],
      "min": [
        -51.625675201416016,
        3.3475921154022217,
        -11.625675201416016
      ],
      "type": "VEC3"
    },
    {
      "bufferView": 2,
      "byteOffset": 6383568,
      "componentType": 5126,
      "count": 65532,
      "max": [
        1.0,
        1.0,
        1.0
      ],
      "min": [
        -1.0,
        -1.0,
        -1.0
      ],
      "type": "VEC3"
    },
    {
      "bufferView": 1,
      "byteOffset": 11436016,
      "componentType": 5126,
      "count": 65532,
      "max": [
        0.0,
        1.0
      ],
      "min": [
        0.0,
        1.0
      ],
      "type": "VEC2"
    },
    {
      "bufferView": 1,
      "byteOffset": 11960272,
      "componentType": 5126,
      "count": 65532,
      "max": [
        0.0,
        1.0
      ],
      "min": [
        0.0,
        1.0
      ],
      "type": "VEC2"
    },
    {
      "bufferView": 1,
      "byteOffset": 12484528,
      "componentType": 5126,
      "count": 65532,
      "max": [
        0.0,
        1.0
      ],
      "min": [
        0.0,
        1.0
      ],
      "type": "VEC2"
    },
    {
      "bufferView": 1,
      "byteOffset": 13008784,
      "componentType": 5126,
      "count": 65532,
      "max": [
        0.0,
        1.0
      ],
      "min": [
        0.0,
        1.0
      ],
      "type": "VEC2"
    },
    {
      "bufferView": 0,
      "byteOffset": 2038692,
      "componentType": 5125,
      "count": 96378,
      "type": "SCALAR"
    },
    {
      "bufferView": 2,
      "byteOffset": 7169952,
      "componentType": 5126,
      "count": 65532,
      "max": [
        -30.622652053833008,
        7.348374366760254,
        30.055349349975586
      ],
      "min": [
        -51.625675201416016,
        3.3475921154022217,
        -11.625675201416016
      ],
      "type": "VEC3"
    },
    {
      "bufferView": 2,
      "byteOffset": 7956336,
      "componentType": 5126,
      "count": 65532,
      "max": [
        1.0,
        0.9999932050704956,
        1.0
      ],
      "min": [
        -1.0,
        -0.999995231628418,
        -1.0
      ],
      "type": "VEC3"
    },
    {
      "bufferView": 1,
      "byteOffset": 13533040,
      "componentType": 5126,
      "count": 65532,
      "max": [
        0.0,
        1.0
      ],
      "min": [
        0.0,
        1.0
      ],
      "type": "VEC2"
    },
    {
      "bufferView": 1,
      "byteOffset": 14057296,
      "componentType": 5126,
      "count": 65532,
      "max": [
        0.0,
        1.0
      ],
      "min": [
        0.0,
        1.0
      ],
      "type": "VEC2"
    },
    {
      "bufferView": 1,
      "byteOffset": 14581552,
      "componentType": 5126,
      "count": 65532,
      "max": [
        0.0,
        1.0
      ],
      "min": [
        0.0,
        1.0
      ],
      "type": "VEC2"
    },
    {
      "bufferView": 1,
      "byteOffset": 15105808,
      "componentType": 5126,
      "count": 65532,
      "max": [
        0.0,
        1.0
      ],
      "min": [
        0.0,
        1.0
      ],
      "type": "VEC2"
    },
    {
      "bufferView": 0,
      "byteOffset": 2424204,
      "componentType": 5125,
      "count": 93642,
      "type": "SCALAR"
    },
    {
      "bufferView": 2,
      "byteOffset": 8742720,
      "componentType": 5126,
      "count": 65532,
      "max": [
        -30.564186096191406,
        9.465858459472656,
        30.055349349975586
      ],
      "min": [
        -39.37734603881836,
        3.3475921154022217,
        0.5641881227493286
      ],
      "type": "VEC3"
    },
    {
      "bufferView": 2,
      "byteOffset": 9529104,
      "componentType": 5126,
      "count": 65532,
      "max": [
        1.0,
        1.0,
        1.0
      ],
      "min": [
        -1.0,
        -1.0,
        -1.0
      ],
      "type": "VEC3"
    },
    {
      "bufferView": 1,
      "byteOffset": 15630064,
      "componentType": 5126,
      "count": 65532,
      "max": [
        0.0,
        1.0
      ],
      "min": [
        0.0,
        1.0
      ],
      "type": "VEC2"
    },
    {
      "bufferView": 1,
      "byteOffset": 16154320,
      "componentType": 5126,
      "count": 65532,
      "max": [
        0.0,
        1.0
      ],
      "min": [
        0.0,
        1.0
      ],
      "type": "VEC2"
    },
    {
      "bufferView": 1,
      "byteOffset": 16678576,
      "componentType": 5126,
      "count": 65532,
      "max": [
        0.0,
        1.0
      ],
      "min": [
        0.0,
        1.0
      ],
      "type": "VEC2"
    },
    {
      "bufferView": 1,
      "byteOffset": 17202832,
      "componentType": 5126,
      "count": 65532,
      "max": [
        0.0,
        1.0
      ],
      "min": [
        0.0,
        1.0
      ],
      "type": "VEC2"
    },
    {
      "bufferView": 0,
      "byteOffset": 2798772,
      "componentType": 5125,
      "count": 98118,
      "type": "SCALAR"
    },
    {
      "bufferView": 2,
      "byteOffset": 10315488,
      "componentType": 5126,
      "count": 23004,
      "max": [
        -38.374324798583984,
        4.348374366760254,
        27.480693817138672
      ],
      "min": [
        -39.37734603881836,
        3.3475921154022217,
        11.154045104980469
      ],
      "type": "VEC3"
    },
    {
      "bufferView": 2,
      "byteOffset": 10591536,
      "componentType": 5126,
      "count": 23004,
      "max": [
        1.0,
        0.9999932050704956,
        1.0
      ],
      "min": [
        -1.0,
        -0.9999948740005493,
        -1.0
      ],
      "type": "VEC3"
    },
    {
      "bufferView": 1,
      "byteOffset": 17727088,
      "componentType": 5126,
      "count": 23004,
      "max": [
        0.0,
        1.0
      ],
      "min": [
        0.0,
        1.0
      ],
      "type": "VEC2"
    },
    {
      "bufferView": 1,
      "byteOffset": 17911120,
      "componentType": 5126,
      "count": 23004,
      "max": [
        0.0,
        1.0
      ],
      "min": [
        0.0,
        1.0
      ],
      "type": "VEC2"
    },
    {
      "bufferView": 1,
      "byteOffset": 18095152,
      "componentType": 5126,
      "count": 23004,
      "max": [
        0.0,
        1.0
      ],
      "min": [
        0.0,
        1.0
      ],
      "type": "VEC2"
    },
    {
      "bufferView": 1,
      "byteOffset": 18279184,
      "componentType": 5126,
      "count": 23004,
      "max": [
        0.0,
        1.0
      ],
      "min": [
        0.0,
        1.0
      ],
      "type": "VEC2"
    },
    {
      "bufferView": 0,
      "byteOffset": 3191244,
      "componentType": 5125,
      "count": 31077,
      "type": "SCALAR"
    },
    {
      "bufferView": 2,
      "byteOffset": 10867584,
      "componentType": 5126,
      "count": 168,
      "max": [
        -21.202938079833984,
        9.760160446166992,
        31.533254623413086
      ],
      "min": [
        -51.53325653076172,
        3.303945302963257,
        -11.533255577087402
      ],
      "type": "VEC3"
    },
    {
      "bufferView": 2,
      "byteOffset": 10869600,
      "componentType": 5126,
      "count": 168,
      "max": [
        1.0,
        1.0,
        1.0
      ],
      "min": [
        -1.0,
        -1.0,
        -1.0
      ],
      "type": "VEC3"
    },
    {
      "bufferView": 1,
      "byteOffset": 18463216,
      "componentType": 5126,
      "count": 168,
      "max": [
        3.012101888656616,
        9.140538215637207
      ],
      "min": [
        -2.012101411819458,
        -8.140539169311523
      ],
      "type": "VEC2"
    },
    {
      "bufferView": 1,
      "byteOffset": 18464560,
      "componentType": 5126,
      "count": 168,
      "max": [
        0.0,
        1.0
      ],
      "min": [
        0.0,
        1.0
      ],
      "type": "VEC2"
    },
    {
      "bufferView": 1,
      "byteOffset": 18465904,
      "componentType": 5126,
      "count": 168,
      "max": [
        0.0,
        1.0
      ],
      "min": [
        0.0,
        1.0
      ],
      "type": "VEC2"
    },
    {
      "bufferView": 1,
      "byteOffset": 18467248,
      "componentType": 5126,
      "count": 168,
      "max": [
        0.0,
        1.0
      ],
      "min": [
        0.0,
        1.0
      ],
      "type": "VEC2"
    },
    {
      "bufferView": 0,
      "byteOffset": 3315552,
      "componentType": 5125,
      "count": 252,
      "type": "SCALAR"
    },
    {
      "bufferView": 2,
      "byteOffset": 10871616,
      "componentType": 5126,
      "count": 64178,
      "max": [
        -19.371326446533203,
        13.368760108947754,
        30.465227127075195
      ],
      "min": [
        -50.6286735534668,
        2.543093681335449,
        -10.62867259979248
      ],
      "type": "VEC3"
    },
    {
      "bufferView": 2,
      "byteOffset": 11641752,
      "componentType": 5126,
      "count": 64178,
      "max": [
        1.0,
        1.0,
        1.0
      ],
      "min": [
        -1.0,
        -1.0,
        -1.0
      ],
      "type": "VEC3"
    },
    {
      "bufferView": 3,
      "byteOffset": 2648736,
      "componentType": 5126,
      "count": 64178,
      "max": [
        1.0,
        1.0,
        1.0,
        1.0
      ],
      "min": [
        -1.0,
        -1.0,
        -1.0,
        1.0
      ],
      "type": "VEC4"
    },
    {
      "bufferView": 1,
      "byteOffset": 18468592,
      "componentType": 5126,
      "count": 64178,
      "max": [
        0.8750000596046448,
        1.0
      ],
      "min": [
        0.0,
        0.0
      ],
      "type": "VEC2"
    },
    {
      "bufferView": 1,
      "byteOffset": 18982016,
      "componentType": 5126,
      "count": 64178,
      "max": [
        0.0,
        1.0
      ],
      "min": [
        0.0,
        1.0
      ],
      "type": "VEC2"
    },
    {
      "bufferView": 1,
      "byteOffset": 19495440,
      "componentType": 5126,
      "count": 64178,
      "max": [
        0.0,
        1.0
      ],
      "min": [
        0.0,
        1.0
      ],
      "type": "VEC2"
    },
    {
      "bufferView": 1,
      "byteOffset": 20008864,
      "componentType": 5126,
      "count": 64178,
      "max": [
        1.0931042432785034,
        1.1713433265686035
      ],
      "min": [
        0.07402601838111877,
        -0.08943498134613037
      ],
      "type": "VEC2"
    },
    {
      "bufferView": 1,
      "byteOffset": 20522288,
      "componentType": 5126,
      "count": 64178,
      "max": [
        0.8750000596046448,
        1.0
      ],
      "min": [
        0.0,
        0.0
      ],
      "type": "VEC2"
    },
    {
      "bufferView": 1,
      "byteOffset": 21035712,
      "componentType": 5126,
      "count": 64178,
      "max": [
        0.8750000596046448,
        1.0
      ],
      "min": [
        0.0,
        0.0
      ],
      "type": "VEC2"
    },
    {
      "bufferView": 0,
      "byteOffset": 3316560,
      "componentType": 5125,
      "count": 130896,
      "type": "SCALAR"
    },
    {
      "bufferView": 2,
      "byteOffset": 12411888,
      "componentType": 5126,
      "count": 53477,
      "max": [
        -19.695053100585938,
        16.006732940673828,
        30.304946899414063
      ],
      "min": [
        -50.30495071411133,
        15.0,
        -10.304946899414063
      ],
      "type": "VEC3"
    },
    {
      "bufferView": 2,
      "byteOffset": 13053612,
      "componentType": 5126,
      "count": 53477,
      "max": [
        1.0,
        1.0,
        1.0
      ],
      "min": [
        -1.0,
        -1.0,
        -1.0
      ],
      "type": "VEC3"
    },
    {
      "bufferView": 3,
      "byteOffset": 3675584,
      "componentType": 5126,
      "count": 53477,
      "max": [
        1.0,
        1.0,
        1.0,
        1.0
      ],
      "min": [
        -1.0,
        -1.0,
        -1.0,
        1.0
      ],
      "type": "VEC4"
    },
    {
      "bufferView": 1,
      "byteOffset": 21549136,
      "componentType": 5126,
      "count": 53477,
      "max": [
        1.0,
        1.0
      ],
      "min": [
        -2.6908303141226497e-08,
        0.0
      ],
      "type": "VEC2"
    },
    {
      "bufferView": 1,
      "byteOffset": 21976952,
      "componentType": 5126,
      "count": 53477,
      "max": [
        1.0,
        1.0
      ],
      "min": [
        -2.6908303141226497e-08,
        0.0
      ],
      "type": "VEC2"
    },
    {
      "bufferView": 1,
      "byteOffset": 22404768,
      "componentType": 5126,
      "count": 53477,
      "max": [
        1.0,
        1.0
      ],
      "min": [
        -2.6908303141226497e-08,
        0.0
      ],
      "type": "VEC2"
    },
    {
      "bufferView": 1,
      "byteOffset": 22832584,
      "componentType": 5126,
      "count": 53477,
      "max": [
        0.0,
        1.0
      ],
      "min": [
        0.0,
        1.0
      ],
      "type": "VEC2"
    },
    {
      "bufferView": 1,
      "byteOffset": 23260400,
      "componentType": 5126,
      "count": 53477,
      "max": [
        0.0,
        1.0
      ],
      "min": [
        0.0,
        1.0
      ],
      "type": "VEC2"
    },
    {
      "bufferView": 1,
      "byteOffset": 23688216,
      "componentType": 5126,
      "count": 53477,
      "max": [
        0.0,
        1.0
      ],
      "min": [
        0.0,
        1.0
      ],
      "type": "VEC2"
    },
    {
      "bufferView": 1,
      "byteOffset": 24116032,
      "componentType": 5126,
      "count": 53477,
      "max": [
        1.0,
        1.0
      ],
      "min": [
        -2.6908303141226497e-08,
        0.0
      ],
      "type": "VEC2"
    },
    {
      "bufferView": 0,
      "byteOffset": 3840144,
      "componentType": 5125,
      "count": 110211,
      "type": "SCALAR"
    },
    {
      "bufferView": 2,
      "byteOffset": 13695336,
      "componentType": 5126,
      "count": 26731,
      "max": [
        -19.0,
        3.0684525966644287,
        30.555164337158203
      ],
      "min": [
        -50.75857925415039,
        -1.1641532182693481e-10,
        -10.75857925415039
      ],
      "type": "VEC3"
    },
    {
      "bufferView": 2,
      "byteOffset": 14016108,
      "componentType": 5126,
      "count": 26731,
      "max": [
        1.0,
        1.0,
        1.0
      ],
      "min": [
        -1.0,
        -1.0,
        -1.0
      ],
      "type": "VEC3"
    },
    {
      "bufferView": 3,
      "byteOffset": 4531216,
      "componentType": 5126,
      "count": 26731,
      "max": [
        1.0,
        1.0,
        1.0,
        1.0
      ],
      "min": [
        -1.0,
        -1.0,
        -1.0,
        1.0
      ],
      "type": "VEC4"
    },
    {
      "bufferView": 1,
      "byteOffset": 24543848,
      "componentType": 5126,
      "count": 26731,
      "max": [
        1.0,
        1.0
      ],
      "min": [
        -1.2729542753220358e-08,
        0.0
      ],
      "type": "VEC2"
    },
    {
      "bufferView": 1,
      "byteOffset": 24757696,
      "componentType": 5126,
      "count": 26731,
      "max": [
        1.0,
        1.0
      ],
      "min": [
        -1.2729542753220358e-08,
        0.0
      ],
      "type": "VEC2"
    },
    {
      "bufferView": 1,
      "byteOffset": 24971544,
      "componentType": 5126,
      "count": 26731,
      "max": [
        1.0,
        1.0
      ],
      "min": [
        -1.2729542753220358e-08,
        0.0
      ],
      "type": "VEC2"
    },
    {
      "bufferView": 1,
      "byteOffset": 25185392,
      "componentType": 5126,
      "count": 26731,
      "max": [
        0.0,
        1.0
      ],
      "min": [
        0.0,
        1.0
      ],
      "type": "VEC2"
    },
    {
      "bufferView": 1,
      "byteOffset": 25399240,
      "componentType": 5126,
      "count": 26731,
      "max": [
        0.0,
        1.0
      ],
      "min": [
        0.0,
        1.0
      ],
      "type": "VEC2"
    },
    {
      "bufferView": 1,
      "byteOffset": 25613088,
      "componentType": 5126,
      "count": 26731,
      "max": [
        0.0,
        1.0
      ],
      "min": [
        0.0,
        1.0
      ],
      "type": "VEC2"
    },
    {
      "bufferView": 1,
      "byteOffset": 25826936,
      "componentType": 5126,
      "count": 26731,
      "max": [
        1.0,
        1.0
      ],
      "min": [
        -1.2729542753220358e-08,
        0.0
      ],
      "type": "VEC2"
    },
    {
      "bufferView": 0,
      "byteOffset": 4280988,
      "componentType": 5125,
      "count": 54447,
      "type": "SCALAR"
    },
    {
      "bufferView": 2,
      "byteOffset": 14336880,
      "componentType": 5126,
      "count": 12,
      "max": [
        10.0,
        15.0,
        30.0
      ],
      "min": [
        -13.0,
        15.0,
        -10.0
      ],
      "type": "VEC3"
    },
    {
      "bufferView": 2,
      "byteOffset": 14337024,
      "componentType": 5126,
      "count": 12,
      "max": [
        0.0,
        1.0,
        0.0
      ],
      "min": [
        0.0,
        1.0,
        0.0
      ],
      "type": "VEC3"
    },
    {
      "bufferView": 1,
      "byteOffset": 26040784,
      "componentType": 5126,
      "count": 12,
      "max": [
        0.0,
        1.0
      ],
      "min": [
        0.0,
        1.0
      ],
      "type": "VEC2"
    },
    {
      "bufferView": 1,
      "byteOffset": 26040880,
      "componentType": 5126,
      "count": 12,
      "max": [
        1.0,
        1.0
      ],
      "min": [
        1.0,
        0.0
      ],
      "type": "VEC2"
    },
    {
      "bufferView": 1,
      "byteOffset": 26040976,
      "componentType": 5126,
      "count": 12,
      "max": [
        0.0,
        1.0
      ],
      "min": [
        0.0,
        1.0
      ],
      "type": "VEC2"
    },
    {
      "bufferView": 1,
      "byteOffset": 26041072,
      "componentType": 5126,
      "count": 12,
      "max": [
        0.0,
        1.0
      ],
      "min": [
        0.0,
        1.0
      ],
      "type": "VEC2"
    },
    {
      "bufferView": 0,
      "byteOffset": 4498776,
      "componentType": 5125,
      "count": 30,
      "type": "SCALAR"
    },
    {
      "bufferView": 2,
      "byteOffset": 14337168,
      "componentType": 5126,
      "count": 65532,
      "max": [
        11.805930137634277,
        26.677440643310547,
        31.284116744995117
      ],
      "min": [
        -14.661765098571777,
        0.0,
        -11.805930137634277
      ],
      "type": "VEC3"
    },
    {
      "bufferView": 2,
      "byteOffset": 15123552,
      "componentType": 5126,
      "count": 65532,
      "max": [
        1.0,
        1.0,
        1.0
      ],
      "min": [
        -1.0,
        -1.0,
        -1.0
      ],
      "type": "VEC3"
    },
    {
      "bufferView": 3,
      "byteOffset": 4958912,
      "componentType": 5126,
      "count": 65532,
      "max": [
        1.0,
        1.0,
        1.0,
        1.0
      ],
      "min": [
        -1.0,
        -1.0,
        -1.0,
        -1.0
      ],
      "type": "VEC4"
    },
    {
      "bufferView": 1,
      "byteOffset": 26041168,
      "componentType": 5126,
      "count": 65532,
      "max": [
        1.834671974182129,
        8.104509353637695
      ],
      "min": [
        -1.864626169204712,
        -3.5732502937316895
      ],
      "type": "VEC2"
    },
    {
      "bufferView": 1,
      "byteOffset": 26565424,
      "componentType": 5126,
      "count": 65532,
      "max": [
        1.834671974182129,
        8.104509353637695
      ],
      "min": [
        -1.864626169204712,
        -3.5732502937316895
      ],
      "type": "VEC2"
    },
    {
      "bufferView": 1,
      "byteOffset": 27089680,
      "componentType": 5126,
      "count": 65532,
      "max": [
        1.834671974182129,
        8.104509353637695
      ],
      "min": [
        -1.864626169204712,
        -3.5732502937316895
      ],
      "type": "VEC2"
    },
    {
      "bufferView": 1,
      "byteOffset": 27613936,
      "componentType": 5126,
      "count": 65532,
      "max": [
        1.4683752059936523,
        2.4934539794921875
      ],
      "min": [
        -0.1905648112297058,
        -1.4556901454925537
      ],
      "type": "VEC2"
    },
    {
      "bufferView": 1,
      "byteOffset": 28138192,
      "componentType": 5126,
      "count": 65532,
      "max": [
        0.9484707117080688,
        1.0
      ],
      "min": [
        0.0,
        0.000499427318572998
      ],
      "type": "VEC2"
    },
    {
      "bufferView": 1,
      "byteOffset": 28662448,
      "componentType": 5126,
      "count": 65532,
      "max": [
        1.1056630611419678,
        1.0948543548583984
      ],
      "min": [
        -0.10566306114196777,
        -0.12859082221984863
      ],
      "type": "VEC2"
    },
    {
      "bufferView": 1,
      "byteOffset": 29186704,
      "componentType": 5126,
      "count": 65532,
      "max": [
        1.834671974182129,
        8.104509353637695
      ],
      "min": [
        -1.864626169204712,
        -3.5732502937316895
      ],
      "type": "VEC2"
    },
    {
      "bufferView": 0,
      "byteOffset": 4498896,
      "componentType": 5125,
      "count": 165309,
      "type": "SCALAR"
    },
    {
      "bufferView": 2,
      "byteOffset": 15909936,
      "componentType": 5126,
      "count": 15461,
      "max": [
        11.661765098571777,
        12.8449125289917,
        31.80592918395996
      ],
      "min": [
        -14.805930137634277,
        2.734102725982666,
        -11.284116744995117
      ],
      "type": "VEC3"
    },
    {
      "bufferView": 2,
      "byteOffset": 16095468,
      "componentType": 5126,
      "count": 15461,
      "max": [
        1.0,
        1.0,
        1.0
      ],
      "min": [
        -1.0,
        -1.0,
        -1.0
      ],
      "type": "VEC3"
    },
    {
      "bufferView": 3,
      "byteOffset": 6007424,
      "componentType": 5126,
      "count": 15461,
      "max": [
        1.0,
        1.0,
        1.0,
        1.0
      ],
      "min": [
        -1.0,
        -1.0,
        -1.0,
        -1.0
      ],
      "type": "VEC4"
    },
    {
      "bufferView": 1,
      "byteOffset": 29710960,
      "componentType": 5126,
      "count": 15461,
      "max": [
        1.2204678058624268,
        1.582636833190918
      ],
      "min": [
        -0.582636833190918,
        -0.3046233654022217
      ],
      "type": "VEC2"
    },
    {
      "bufferView": 1,
      "byteOffset": 29834648,
      "componentType": 5126,
      "count": 15461,
      "max": [
        1.2204678058624268,
        1.582636833190918
      ],
      "min": [
        -0.582636833190918,
        -0.3046233654022217
      ],
      "type": "VEC2"
    },
    {
      "bufferView": 1,
      "byteOffset": 29958336,
      "componentType": 5126,
      "count": 15461,
      "max": [
        1.2204678058624268,
        1.582636833190918
      ],
      "min": [
        -0.582636833190918,
        -0.3046233654022217
      ],
      "type": "VEC2"
    },
    {
      "bufferView": 1,
      "byteOffset": 30082024,
      "componentType": 5126,
      "count": 15461,
      "max": [
        1.4683752059936523,
        2.4934539794921875
      ],
      "min": [
        -0.1905648112297058,
        -1.4556901454925537
      ],
      "type": "VEC2"
    },
    {
      "bufferView": 1,
      "byteOffset": 30205712,
      "componentType": 5126,
      "count": 15461,
      "max": [
        0.0,
        1.0
      ],
      "min": [
        0.0,
        1.0
      ],
      "type": "VEC2"
    },
    {
      "bufferView": 1,
      "byteOffset": 30329400,
      "componentType": 5126,
      "count": 15461,
      "max": [
        1.196437120437622,
        1.0948543548583984
      ],
      "min": [
        -0.10566306114196777,
        -0.19643712043762207
      ],
      "type": "VEC2"
    },
    {
      "bufferView": 1,
      "byteOffset": 30453088,
      "componentType": 5126,
      "count": 15461,
      "max": [
        1.2204678058624268,
        1.582636833190918
      ],
      "min": [
        -0.582636833190918,
        -0.3046233654022217
      ],
      "type": "VEC2"
    },
    {
      "bufferView": 0,
      "byteOffset": 5160132,
      "componentType": 5125,
      "count": 41067,
      "type": "SCALAR"
    },
    {
      "bufferView": 2,
      "byteOffset": 16281000,
      "componentType": 5126,
      "count": 1220,
      "max": [
        10.098275184631348,
        14.442869186401367,
        30.013458251953125
      ],
      "min": [
        -13.098275184631348,
        0.43250590562820435,
        -10.098275184631348
      ],
      "type": "VEC3"
    },
    {
      "bufferView": 2,
      "byteOffset": 16295640,
      "componentType": 5126,
      "count": 1220,
      "max": [
        1.0,
        0.0,
        1.0
      ],
      "min": [
        -1.0,
        0.0,
        -1.0
      ],
      "type": "VEC3"
    },
    {
      "bufferView": 1,
      "byteOffset": 30576776,
      "componentType": 5126,
      "count": 1220,
      "max": [
        0.0,
        1.0
      ],
      "min": [
        0.0,
        1.0
      ],
      "type": "VEC2"
    },
    {
      "bufferView": 1,
      "byteOffset": 30586536,
      "componentType": 5126,
      "count": 1220,
      "max": [
        0.8193808197975159,
        1.0
      ],
      "min": [
        0.0,
        0.10402363538742065
      ],
      "type": "VEC2"
    },
    {
      "bufferView": 1,
      "byteOffset": 30596296,
      "componentType": 5126,
      "count": 1220,
      "max": [
        0.0,
        1.0
      ],
      "min": [
        0.0,
        1.0
      ],
      "type": "VEC2"
    },
    {
      "bufferView": 1,
      "byteOffset": 30606056,
      "componentType": 5126,
      "count": 1220,
      "max": [
        0.0,
        1.0
      ],
      "min": [
        0.0,
        1.0
      ],
      "type": "VEC2"
    },
    {
      "bufferView": 0,
      "byteOffset": 5324400,
      "componentType": 5125,
      "count": 2370,
      "type": "SCALAR"
    },
    {
      "bufferView": 2,
      "byteOffset": 16310280,
      "componentType": 5126,
      "count": 11635,
      "max": [
        7.653236389160156,
        16.66946029663086,
        -1.8978023529052734
      ],
      "min": [
        -5.948980808258057,
        14.842514991760254,
        -7.968539237976074
      ],
      "type": "VEC3"
    },
    {
      "bufferView": 2,
      "byteOffset": 16449900,
      "componentType": 5126,
      "count": 11635,
      "max": [
        1.0,
        1.0,
        1.0
      ],
      "min": [
        -1.0,
        -1.0,
        -1.0
      ],
      "type": "VEC3"
    },
    {
      "bufferView": 1,
      "byteOffset": 30615816,
      "componentType": 5126,
      "count": 11635,
      "max": [
        0.0,
        1.0
      ],
      "min": [
        0.0,
        1.0
      ],
      "type": "VEC2"
    },
    {
      "bufferView": 1,
      "byteOffset": 30708896,
      "componentType": 5126,
      "count": 11635,
      "max": [
        1.0,
        0.75
      ],
      "min": [
        1.0,
        0.25
      ],
      "type": "VEC2"
    },
    {
      "bufferView": 1,
      "byteOffset": 30801976,
      "componentType": 5126,
      "count": 11635,
      "max": [
        0.0,
        1.0
      ],
      "min": [
        0.0,
        1.0
      ],
      "type": "VEC2"
    },
    {
      "bufferView": 1,
      "byteOffset": 30895056,
      "componentType": 5126,
      "count": 11635,
      "max": [
        0.0,
        1.0
      ],
      "min": [
        0.0,
        1.0
      ],
      "type": "VEC2"
    },
    {
      "bufferView": 0,
      "byteOffset": 5333880,
      "componentType": 5125,
      "count": 38712,
      "type": "SCALAR"
    },
    {
      "bufferView": 2,
      "byteOffset": 16589520,
      "componentType": 5126,
      "count": 52580,
      "max": [
        10.465227127075195,
        15.813002586364746,
        30.628673553466797
      ],
      "min": [
        -13.62867259979248,
        2.6160130500793457,
        -10.62867259979248
      ],
      "type": "VEC3"
    },
    {
      "bufferView": 2,
      "byteOffset": 17220480,
      "componentType": 5126,
      "count": 52580,
      "max": [
        1.0,
        1.0,
        1.0
      ],
      "min": [
        -1.0,
        -1.0,
        -1.0
      ],
      "type": "VEC3"
    },
    {
      "bufferView": 3,
      "byteOffset": 6254800,
      "componentType": 5126,
      "count": 52580,
      "max": [
        1.0,
        1.0,
        1.0,
        1.0
      ],
      "min": [
        -1.0,
        -1.0,
        -1.0,
        1.0
      ],
      "type": "VEC4"
    },
    {
      "bufferView": 1,
      "byteOffset": 30988136,
      "componentType": 5126,
      "count": 52580,
      "max": [
        0.8750000596046448,
        1.0
      ],
      "min": [
        0.0,
        0.0
      ],
      "type": "VEC2"
    },
    {
      "bufferView": 1,
      "byteOffset": 31408776,
      "componentType": 5126,
      "count": 52580,
      "max": [
        0.0,
        1.0
      ],
      "min": [
        0.0,
        1.0
      ],
      "type": "VEC2"
    },
    {
      "bufferView": 1,
      "byteOffset": 31829416,
      "componentType": 5126,
      "count": 52580,
      "max": [
        0.0,
        1.0
      ],
      "min": [
        0.0,
        1.0
      ],
      "type": "VEC2"
    },
    {
      "bufferView": 1,
      "byteOffset": 32250056,
      "componentType": 5126,
      "count": 52580,
      "max": [
        1.226115107536316,
        1.1713433265686035
      ],
      "min": [
        -0.04763764142990112,
        -0.09053492546081543
      ],
      "type": "VEC2"
    },
    {
      "bufferView": 1,
      "byteOffset": 32670696,
      "componentType": 5126,
      "count": 52580,
      "max": [
        0.8750000596046448,
        1.0
      ],
      "min": [
        0.0,
        0.0
      ],
      "type": "VEC2"
    },
    {
      "bufferView": 1,
      "byteOffset": 33091336,
      "componentType": 5126,
      "count": 52580,
      "max": [
        0.8750000596046448,
        1.0
      ],
      "min": [
        0.0,
        0.0
      ],
      "type": "VEC2"
    },
    {
      "bufferView": 0,
      "byteOffset": 5488728,
      "componentType": 5125,
      "count": 107394,
      "type": "SCALAR"
    },
    {
      "bufferView": 2,
      "byteOffset": 17851440,
      "componentType": 5126,
      "count": 16556,
      "max": [
        10.08505630493164,
        15.0,
        30.030000686645508
      ],
      "min": [
        -13.08505630493164,
        3.0,
        -10.08505630493164
      ],
      "type": "VEC3"
    },
    {
      "bufferView": 2,
      "byteOffset": 18050112,
      "componentType": 5126,
      "count": 16556,
      "max": [
        1.0,
        1.0,
        1.0
      ],
      "min": [
        -1.0,
        -1.0,
        -1.0
      ],
      "type": "VEC3"
    },
    {
      "bufferView": 3,
      "byteOffset": 7096080,
      "componentType": 5126,
      "count": 16556,
      "max": [
        1.0,
        1.0,
        1.0,
        1.0
      ],
      "min": [
        -1.0,
        -1.0,
        -1.0,
        1.0
      ],
      "type": "VEC4"
    },
    {
      "bufferView": 1,
      "byteOffset": 33511976,
      "componentType": 5126,
      "count": 16556,
      "max": [
        2.0,
        2.1291651725769043
      ],
      "min": [
        -1.0,
        -1.0963423252105713
      ],
      "type": "VEC2"
    },
    {
      "bufferView": 1,
      "byteOffset": 33644424,
      "componentType": 5126,
      "count": 16556,
      "max": [
        0.0,
        1.0
      ],
      "min": [
        0.0,
        1.0
      ],
      "type": "VEC2"
    },
    {
      "bufferView": 1,
      "byteOffset": 33776872,
      "componentType": 5126,
      "count": 16556,
      "max": [
        0.0,
        1.0
      ],
      "min": [
        0.0,
        1.0
      ],
      "type": "VEC2"
    },
    {
      "bufferView": 1,
      "byteOffset": 33909320,
      "componentType": 5126,
      "count": 16556,
      "max": [
        0.0,
        1.0
      ],
      "min": [
        0.0,
        1.0
      ],
      "type": "VEC2"
    },
    {
      "bufferView": 1,
      "byteOffset": 34041768,
      "componentType": 5126,
      "count": 16556,
      "max": [
        2.0,
        2.1291651725769043
      ],
      "min": [
        -1.0,
        -1.0963423252105713
      ],
      "type": "VEC2"
    },
    {
      "bufferView": 1,
      "byteOffset": 34174216,
      "componentType": 5126,
      "count": 16556,
      "max": [
        2.0,
        2.1291651725769043
      ],
      "min": [
        -1.0,
        -1.0963423252105713
      ],
      "type": "VEC2"
    },
    {
      "bufferView": 1,
      "byteOffset": 34306664,
      "componentType": 5126,
      "count": 16556,
      "max": [
        2.0,
        2.1291651725769043
      ],
      "min": [
        -1.0,
        -1.0963423252105713
      ],
      "type": "VEC2"
    },
    {
      "bufferView": 0,
      "byteOffset": 5918304,
      "componentType": 5125,
      "count": 35136,
      "type": "SCALAR"
    },
    {
      "bufferView": 2,
      "byteOffset": 18248784,
      "componentType": 5126,
      "count": 25728,
      "max": [
        10.0600004196167,
        15.0,
        30.059999465942383
      ],
      "min": [
        -13.0600004196167,
        3.0,
        -10.0600004196167
      ],
      "type": "VEC3"
    },
    {
      "bufferView": 2,
      "byteOffset": 18557520,
      "componentType": 5126,
      "count": 25728,
      "max": [
        0.9973675012588501,
        0.995395839214325,
        0.9973675012588501
      ],
      "min": [
        -0.9973716735839844,
        -0.995395839214325,
        -0.9973675012588501
      ],
      "type": "VEC3"
    },
    {
      "bufferView": 3,
      "byteOffset": 7360976,
      "componentType": 5126,
      "count": 25728,
      "max": [
        0.9991092681884766,
        0.9983456134796143,
        0.999138593673706,
        1.0
      ],
      "min": [
        -0.9991092681884766,
        -0.9983456134796143,
        -0.999138593673706,
        1.0
      ],
      "type": "VEC4"
    },
    {
      "bufferView": 1,
      "byteOffset": 34439112,
      "componentType": 5126,
      "count": 25728,
      "max": [
        0.8450084328651428,
        2.0000007152557373
      ],
      "min": [
        0.1549915373325348,
        -1.0
      ],
      "type": "VEC2"
    },
    {
      "bufferView": 1,
      "byteOffset": 34644936,
      "componentType": 5126,
      "count": 25728,
      "max": [
        0.0,
        1.0
      ],
      "min": [
        0.0,
        1.0
      ],
      "type": "VEC2"
    },
    {
      "bufferView": 1,
      "byteOffset": 34850760,
      "componentType": 5126,
      "count": 25728,
      "max": [
        0.0,
        1.0
      ],
      "min": [
        0.0,
        1.0
      ],
      "type": "VEC2"
    },
    {
      "bufferView": 1,
      "byteOffset": 35056584,
      "componentType": 5126,
      "count": 25728,
      "max": [
        0.0,
        1.0
      ],
      "min": [
        0.0,
        1.0
      ],
      "type": "VEC2"
    },
    {
      "bufferView": 1,
      "byteOffset": 35262408,
      "componentType": 5126,
      "count": 25728,
      "max": [
        0.8450084328651428,
        2.0000007152557373
      ],
      "min": [
        0.1549915373325348,
        -1.0
      ],
      "type": "VEC2"
    },
    {
      "bufferView": 1,
      "byteOffset": 35468232,
      "componentType": 5126,
      "count": 25728,
      "max": [
        0.8450084328651428,
        2.0000007152557373
      ],
      "min": [
        0.1549915373325348,
        -1.0
      ],
      "type": "VEC2"
    },
    {
      "bufferView": 1,
      "byteOffset": 35674056,
      "componentType": 5126,
      "count": 25728,
      "max": [
        0.8450084328651428,
        2.0000007152557373
      ],
      "min": [
        0.1549915373325348,
        -1.0
      ],
      "type": "VEC2"
    },
    {
      "bufferView": 0,
      "byteOffset": 6058848,
      "componentType": 5125,
      "count": 63360,
      "type": "SCALAR"
    },
    {
      "bufferView": 2,
      "byteOffset": 18866256,
      "componentType": 5126,
      "count": 264,
      "max": [
        11.707419395446777,
        7.423656463623047,
        31.707420349121094
      ],
      "min": [
        -14.707419395446777,
        3.303945302963257,
        -11.707420349121094
      ],
      "type": "VEC3"
    },
    {
      "bufferView": 2,
      "byteOffset": 18869424,
      "componentType": 5126,
      "count": 264,
      "max": [
        1.0,
        1.0,
        1.0
      ],
      "min": [
        -1.0,
        -1.0,
        -1.0
      ],
      "type": "VEC3"
    },
    {
      "bufferView": 1,
      "byteOffset": 35879880,
      "componentType": 5126,
      "count": 264,
      "max": [
        0.0,
        1.0
      ],
      "min": [
        0.0,
        1.0
      ],
      "type": "VEC2"
    },
    {
      "bufferView": 1,
      "byteOffset": 35881992,
      "componentType": 5126,
      "count": 264,
      "max": [
        3.4475131034851074,
        3.4475128650665283
      ],
      "min": [
        -2.4475128650665283,
        -2.4475131034851074
      ],
      "type": "VEC2"
    },
    {
      "bufferView": 1,
      "byteOffset": 35884104,
      "componentType": 5126,
      "count": 264,
      "max": [
        0.0,
        1.0
      ],
      "min": [
        0.0,
        1.0
      ],
      "type": "VEC2"
    },
    {
      "bufferView": 1,
      "byteOffset": 35886216,
      "componentType": 5126,
      "count": 264,
      "max": [
        0.0,
        1.0
      ],
      "min": [
        0.0,
        1.0
      ],
      "type": "VEC2"
    },
    {
      "bufferView": 0,
      "byteOffset": 6312288,
      "componentType": 5125,
      "count": 396,
      "type": "SCALAR"
    },
    {
      "bufferView": 2,
      "byteOffset": 18872592,
      "componentType": 5126,
      "count": 65532,
      "max": [
        -7.534579753875732,
        9.465858459472656,
        31.609956741333008
      ],
      "min": [
        -14.625675201416016,
        3.3475921154022217,
        -9.863890647888184
      ],
      "type": "VEC3"
    },
    {
      "bufferView": 2,
      "byteOffset": 19658976,
      "componentType": 5126,
      "count": 65532,
      "max": [
        1.0,
        1.0,
        1.0
      ],
      "min": [
        -1.0,
        -1.0,
        -1.0
      ],
      "type": "VEC3"
    },
    {
      "bufferView": 1,
      "byteOffset": 35888328,
      "componentType": 5126,
      "count": 65532,
      "max": [
        0.0,
        1.0
      ],
      "min": [
        0.0,
        1.0
      ],
      "type": "VEC2"
    },
    {
      "bufferView": 1,
      "byteOffset": 36412584,
      "componentType": 5126,
      "count": 65532,
      "max": [
        0.0,
        1.0
      ],
      "min": [
        0.0,
        1.0
      ],
      "type": "VEC2"
    },
    {
      "bufferView": 1,
      "byteOffset": 36936840,
      "componentType": 5126,
      "count": 65532,
      "max": [
        0.0,
        1.0
      ],
      "min": [
        0.0,
        1.0
      ],
      "type": "VEC2"
    },
    {
      "bufferView": 1,
      "byteOffset": 37461096,
      "componentType": 5126,
      "count": 65532,
      "max": [
        0.0,
        1.0
      ],
      "min": [
        0.0,
        1.0
      ],
      "type": "VEC2"
    },
    {
      "bufferView": 0,
      "byteOffset": 6313872,
      "componentType": 5125,
      "count": 93771,
      "type": "SCALAR"
    },
    {
      "bufferView": 2,
      "byteOffset": 20445360,
      "componentType": 5126,
      "count": 65532,
      "max": [
        11.625675201416016,
        7.348374366760254,
        31.625675201416016
      ],
      "min": [
        -14.48015022277832,
        3.3475921154022217,
        -11.625675201416016
      ],
      "type": "VEC3"
    },
    {
      "bufferView": 2,
      "byteOffset": 21231744,
      "componentType": 5126,
      "count": 65532,
      "max": [
        1.0,
        1.0,
        1.0
      ],
      "min": [
        -1.0,
        -1.0,
        -1.0
      ],
      "type": "VEC3"
    },
    {
      "bufferView": 1,
      "byteOffset": 37985352,
      "componentType": 5126,
      "count": 65532,
      "max": [
        0.0,
        1.0
      ],
      "min": [
        0.0,
        1.0
      ],
      "type": "VEC2"
    },
    {
      "bufferView": 1,
      "byteOffset": 38509608,
      "componentType": 5126,
      "count": 65532,
      "max": [
        0.0,
        1.0
      ],
      "min": [
        0.0,
        1.0
      ],
      "type": "VEC2"
    },
    {
      "bufferView": 1,
      "byteOffset": 39033864,
      "componentType": 5126,
      "count": 65532,
      "max": [
        0.0,
        1.0
      ],
      "min": [
        0.0,
        1.0
      ],
      "type": "VEC2"
    },
    {
      "bufferView": 1,
      "byteOffset": 39558120,
      "componentType": 5126,
      "count": 65532,
      "max": [
        0.0,
        1.0
      ],
      "min": [
        0.0,
        1.0
      ],
      "type": "VEC2"
    },
    {
      "bufferView": 0,
      "byteOffset": 6688956,
      "componentType": 5125,
      "count": 125763,
      "type": "SCALAR"
    },
    {
      "bufferView": 2,
      "byteOffset": 22018128,
      "componentType": 5126,
      "count": 62584,
      "max": [
        11.625675201416016,
        9.465858459472656,
        31.625675201416016
      ],
      "min": [
        -9.79401683807373,
        3.3475921154022217,
        -11.625675201416016
      ],
      "type": "VEC3"
    },
    {
      "bufferView": 2,
      "byteOffset": 22769136,
      "componentType": 5126,
      "count": 62584,
      "max": [
        1.0,
        1.0,
        1.0
      ],
      "min": [
        -1.0,
        -1.0,
        -1.0
      ],
      "type": "VEC3"
    },
    {
      "bufferView": 1,
      "byteOffset": 40082376,
      "componentType": 5126,
      "count": 62584,
      "max": [
        0.0,
        1.0
      ],
      "min": [
        0.0,
        1.0
      ],
      "type": "VEC2"
    },
    {
      "bufferView": 1,
      "byteOffset": 40583048,
      "componentType": 5126,
      "count": 62584,
      "max": [
        0.0,
        1.0
      ],
      "min": [
        0.0,
        1.0
      ],
      "type": "VEC2"
    },
    {
      "bufferView": 1,
      "byteOffset": 41083720,
      "componentType": 5126,
      "count": 62584,
      "max": [
        0.0,
        1.0
      ],
      "min": [
        0.0,
        1.0
      ],
      "type": "VEC2"
    },
    {
      "bufferView": 1,
      "byteOffset": 41584392,
      "componentType": 5126,
      "count": 62584,
      "max": [
        0.0,
        1.0
      ],
      "min": [
        0.0,
        1.0
      ],
      "type": "VEC2"
    },
    {
      "bufferView": 0,
      "byteOffset": 7192008,
      "componentType": 5125,
      "count": 104034,
      "type": "SCALAR"
    },
    {
      "bufferView": 2,
      "byteOffset": 23520144,
      "componentType": 5126,
      "count": 120,
      "max": [
        11.533255577087402,
        9.760160446166992,
        29.7526912689209
      ],
      "min": [
        -14.533255577087402,
        3.303945302963257,
        -4.4708967208862305
      ],
      "type": "VEC3"
    },
    {
      "bufferView": 2,
      "byteOffset": 23521584,
      "componentType": 5126,
      "count": 120,
      "max": [
        1.0,
        1.0,
        1.0
      ],
      "min": [
        -1.0,
        -1.0,
        -1.0
      ],
      "type": "VEC3"
    },
    {
      "bufferView": 1,
      "byteOffset": 42085064,
      "componentType": 5126,
      "count": 120,
      "max": [
        3.012101888656616,
        9.140538215637207
      ],
      "min": [
        -2.012101411819458,
        -8.140539169311523
      ],
      "type": "VEC2"
    },
    {
      "bufferView": 1,
      "byteOffset": 42086024,
      "componentType": 5126,
      "count": 120,
      "max": [
        0.0,
        1.0
      ],
      "min": [
        0.0,
        1.0
      ],
      "type": "VEC2"
    },
    {
      "bufferView": 1,
      "byteOffset": 42086984,
      "componentType": 5126,
      "count": 120,
      "max": [
        0.0,
        1.0
      ],
      "min": [
        0.0,
        1.0
      ],
      "type": "VEC2"
    },
    {
      "bufferView": 1,
      "byteOffset": 42087944,
      "componentType": 5126,
      "count": 120,
      "max": [
        0.0,
        1.0
      ],
      "min": [
        0.0,
        1.0
      ],
      "type": "VEC2"
    },
    {
      "bufferView": 0,
      "byteOffset": 7608144,
      "componentType": 5125,
      "count": 180,
      "type": "SCALAR"
    },
    {
      "bufferView": 2,
      "byteOffset": 23523024,
      "componentType": 5126,
      "count": 38740,
      "max": [
        10.304946899414063,
        16.006732940673828,
        30.304946899414063
      ],
      "min": [
        -13.304947853088379,
        15.0,
        -10.304946899414063
      ],
      "type": "VEC3"
    },
    {
      "bufferView": 2,
      "byteOffset": 23987904,
      "componentType": 5126,
      "count": 38740,
      "max": [
        1.0,
        1.0,
        1.0
      ],
      "min": [
        -1.0,
        -1.0,
        -1.0
      ],
      "type": "VEC3"
    },
    {
      "bufferView": 3,
      "byteOffset": 7772624,
      "componentType": 5126,
      "count": 38740,
      "max": [
        1.0,
        1.0,
        1.0,
        1.0
      ],
      "min": [
        -1.0,
        -1.0,
        -1.0,
        1.0
      ],
      "type": "VEC4"
    },
    {
      "bufferView": 1,
      "byteOffset": 42088904,
      "componentType": 5126,
      "count": 38740,
      "max": [
        1.0,
        1.0
      ],
      "min": [
        -2.6908303141226497e-08,
        0.0
      ],
      "type": "VEC2"
    },
    {
      "bufferView": 1,
      "byteOffset": 42398824,
      "componentType": 5126,
      "count": 38740,
      "max": [
        1.0,
        1.0
      ],
      "min": [
        -2.6908303141226497e-08,
        0.0
      ],
      "type": "VEC2"
    },
    {
      "bufferView": 1,
      "byteOffset": 42708744,
      "componentType": 5126,
      "count": 38740,
      "max": [
        1.0,
        1.0
      ],
      "min": [
        -2.6908303141226497e-08,
        0.0
      ],
      "type": "VEC2"
    },
    {
      "bufferView": 1,
      "byteOffset": 43018664,
      "componentType": 5126,
      "count": 38740,
      "max": [
        0.0,
        1.0
      ],
      "min": [
        0.0,
        1.0
      ],
      "type": "VEC2"
    },
    {
      "bufferView": 1,
      "byteOffset": 43328584,
      "componentType": 5126,
      "count": 38740,
      "max": [
        0.0,
        1.0
      ],
      "min": [
        0.0,
        1.0
      ],
      "type": "VEC2"
    },
    {
      "bufferView": 1,
      "byteOffset": 43638504,
      "componentType": 5126,
      "count": 38740,
      "max": [
        0.0,
        1.0
      ],
      "min": [
        0.0,
        1.0
      ],
      "type": "VEC2"
    },
    {
      "bufferView": 1,
      "byteOffset": 43948424,
      "componentType": 5126,
      "count": 38740,
      "max": [
        1.0,
        1.0
      ],
      "min": [
        -2.6908303141226497e-08,
        0.0
      ],
      "type": "VEC2"
    },
    {
      "bufferView": 0,
      "byteOffset": 7608864,
      "componentType": 5125,
      "count": 79818,
      "type": "SCALAR"
    },
    {
      "bufferView": 2,
      "byteOffset": 24452784,
      "componentType": 5126,
      "count": 20271,
      "max": [
        10.55516529083252,
        3.0684525966644287,
        30.75857925415039
      ],
      "min": [
        -13.75857925415039,
        -1.1641532182693481e-10,
        -10.75857925415039
      ],
      "type": "VEC3"
    },
    {
      "bufferView": 2,
      "byteOffset": 24696036,
      "componentType": 5126,
      "count": 20271,
      "max": [
        1.0,
        1.0,
        1.0
      ],
      "min": [
        -1.0,
        -1.0,
        -1.0
      ],
      "type": "VEC3"
    },
    {
      "bufferView": 3,
      "byteOffset": 8392464,
      "componentType": 5126,
      "count": 20271,
      "max": [
        1.0,
        1.0,
        1.0,
        1.0
      ],
      "min": [
        -1.0,
        -1.0,
        -1.0,
        1.0
      ],
      "type": "VEC4"
    },
    {
      "bufferView": 1,
      "byteOffset": 44258344,
      "componentType": 5126,
      "count": 20271,
      "max": [
        1.0,
        1.0
      ],
      "min": [
        -1.2729542753220358e-08,
        0.0
      ],
      "type": "VEC2"
    },
    {
      "bufferView": 1,
      "byteOffset": 44420512,
      "componentType": 5126,
      "count": 20271,
      "max": [
        1.0,
        1.0
      ],
      "min": [
        -1.2729542753220358e-08,
        0.0
      ],
      "type": "VEC2"
    },
    {
      "bufferView": 1,
      "byteOffset": 44582680,
      "componentType": 5126,
      "count": 20271,
      "max": [
        1.0,
        1.0
      ],
      "min": [
        -1.2729542753220358e-08,
        0.0
      ],
      "type": "VEC2"
    },
    {
      "bufferView": 1,
      "byteOffset": 44744848,
      "componentType": 5126,
      "count": 20271,
      "max": [
        0.0,
        1.0
      ],
      "min": [
        0.0,
        1.0
      ],
      "type": "VEC2"
    },
    {
      "bufferView": 1,
      "byteOffset": 44907016,
      "componentType": 5126,
      "count": 20271,
      "max": [
        0.0,
        1.0
      ],
      "min": [
        0.0,
        1.0
      ],
      "type": "VEC2"
    },
    {
      "bufferView": 1,
      "byteOffset": 45069184,
      "componentType": 5126,
      "count": 20271,
      "max": [
        0.0,
        1.0
      ],
      "min": [
        0.0,
        1.0
      ],
      "type": "VEC2"
    },
    {
      "bufferView": 1,
      "byteOffset": 45231352,
      "componentType": 5126,
      "count": 20271,
      "max": [
        1.0,
        1.0
      ],
      "min": [
        -1.2729542753220358e-08,
        0.0
      ],
      "type": "VEC2"
    },
    {
      "bufferView": 0,
      "byteOffset": 7928136,
      "componentType": 5125,
      "count": 41319,
      "type": "SCALAR"
    }
  ],
  "asset": {
    "extras": {
      "author": "abhayexe (https://sketchfab.com/abhayexe)",
      "license": "SKETCHFAB Standard (https://sketchfab.com/licenses)",
      "source": "https://sketchfab.com/3d-models/buildings-f4eb4a0fe6134232a8937da9afab8b2c",
      "title": "Buildings"
    },
    "generator": "Sketchfab-16.85.0",
    "version": "2.0"
  },
  "bufferViews": [
    {
      "buffer": 0,
      "byteLength": 8093412,
      "name": "floatBufferViews",
      "target": 34963
    },
    {
      "buffer": 0,
      "byteLength": 45393520,
      "byteOffset": 8093412,
      "byteStride": 8,
      "name": "floatBufferViews",
      "target": 34962
    },
    {
      "buffer": 0,
      "byteLength": 24939288,
      "byteOffset": 53486932,
      "byteStride": 12,
      "name": "floatBufferViews",
      "target": 34962
    },
    {
      "buffer": 0,
      "byteLength": 8716800,
      "byteOffset": 78426220,
      "byteStride": 16,
      "name": "floatBufferViews",
      "target": 34962
    }
  ],
  "buffers": [
    {
      "byteLength": 87143020,
      "uri": "scene.bin"
    }
  ],
  "extensionsUsed": [
    "KHR_texture_transform",
    "KHR_materials_specular"
  ],
  "images": [
    {
      "uri": "textures/Old_White_Metal_baseColor.jpeg"
    },
    {
      "uri": "textures/Old_White_Metal_metallicRoughness.png"
    },
    {
      "uri": "textures/Old_White_Metal_normal.jpeg"
    },
    {
      "uri": "textures/Concrete.001_baseColor.jpeg"
    },
    {
      "uri": "textures/Concrete.001_metallicRoughness.png"
    },
    {
      "uri": "textures/Concrete.001_normal.jpeg"
    },
    {
      "uri": "textures/Bricks_baseColor.jpeg"
    },
    {
      "uri": "textures/Bricks_metallicRoughness.png"
    },
    {
      "uri": "textures/Bricks_normal.jpeg"
    },
    {
      "uri": "textures/Concrete.002_baseColor.jpeg"
    },
    {
      "uri": "textures/Concrete.002_metallicRoughness.png"
    },
    {
      "uri": "textures/Concrete.002_normal.jpeg"
    },
    {
      "uri": "textures/Gun_Metal_metallicRoughness.png"
    },
    {
      "uri": "textures/Gun_Metal_normal.jpeg"
    },
    {
      "uri": "textures/Concrete.003_baseColor.jpeg"
    },
    {
      "uri": "textures/Concrete.003_metallicRoughness.png"
    },
    {
      "uri": "textures/Concrete.003_normal.jpeg"
    },
    {
      "uri": "textures/Concrete_baseColor.jpeg"
    },
    {
      "uri": "textures/Concrete_metallicRoughness.png"
    },
    {
      "uri": "textures/Concrete_normal.jpeg"
    },
    {
      "uri": "textures/Concrete_specularf0.png"
    }
  ],
  "materials": [
    {
      "doubleSided": true,
      "name": "proxy_mat_roof",
      "pbrMetallicRoughness": {
        "baseColorFactor": [
          0.0420278,
          0.0420278,
          0.0420278,
          1.0
        ],
        "metallicFactor": 0.0,
        "roughnessFactor": 0.858209
      }
    },
    {
      "doubleSided": true,
      "name": "Old_White_Metal",
      "normalTexture": {
        "extensions": {
          "KHR_texture_transform": {
            "offset": [
              0,
              -1
            ],
            "scale": [
              2,
              2
            ]
          }
        },
        "index": 2,
        "texCoord": 2
      },
      "pbrMetallicRoughness": {
        "baseColorTexture": {
          "extensions": {
            "KHR_texture_transform": {
              "offset": [
                0,
                -1
              ],
              "scale": [
                2,
                2
              ]
            }
          },
          "index": 0
        },
        "metallicRoughnessTexture": {
          "extensions": {
            "KHR_texture_transform": {
              "offset": [
                0,
                -1
              ],
              "scale": [
                2,
                2
              ]
            }
          },
          "index": 1,
          "texCoord": 1
        }
      }
    },
    {
      "doubleSided": true,
      "name": "proxy_mat_general_reflective",
      "pbrMetallicRoughness": {
        "baseColorFactor": [
          0.0272096,
          0.0272096,
          0.0272096,
          1.0
        ],
        "metallicFactor": 0.0,
        "roughnessFactor": 0.039801
      }
    },
    {
      "doubleSided": true,
      "name": "Concrete.001",
      "normalTexture": {
        "index": 5
      },
      "pbrMetallicRoughness": {
        "baseColorTexture": {
          "index": 3
        },
        "metallicFactor": 0.0,
        "metallicRoughnessTexture": {
          "index": 4
        }
      }
    },
    {
      "doubleSided": true,
      "name": "Bricks",
      "normalTexture": {
        "index": 8
      },
      "pbrMetallicRoughness": {
        "baseColorTexture": {
          "index": 6
        },
        "metallicFactor": 0.0,
        "metallicRoughnessTexture": {
          "index": 7
        }
      }
    },
    {
      "doubleSided": true,
      "name": "Concrete.002",
      "normalTexture": {
        "index": 11
      },
      "pbrMetallicRoughness": {
        "baseColorTexture": {
          "index": 9
        },
        "metallicFactor": 0.0,
        "metallicRoughnessTexture": {
          "index": 10
        }
      }
    },
    {
      "doubleSided": true,
      "name": "proxy_mat_white.001",
      "pbrMetallicRoughness": {
        "baseColorFactor": [
          0.248065,
          1.0,
          0.652183,
          1.0
        ],
        "metallicFactor": 0.0,
        "roughnessFactor": 0.858209
      }
    },
    {
      "doubleSided": true,
      "emissiveFactor": [
        1.0,
        1.0,
        1.0
      ],
      "name": "Material.001",
      "pbrMetallicRoughness": {
        "baseColorFactor": [
          0.8,
          0.8,
          0.8,
          1.0
        ],
        "metallicFactor": 0.0,
        "roughnessFactor": 0.5
      }
    },
    {
      "doubleSided": true,
      "name": "proxy_mat_white",
      "pbrMetallicRoughness": {
        "baseColorFactor": [
          0.120404,
          0.238585,
          0.438501,
          1.0
        ],
        "metallicFactor": 0.0,
        "roughnessFactor": 0.858209
      }
    },
    {
      "doubleSided": true,
      "name": "Gun_Metal",
      "normalTexture": {
        "index": 13
      },
      "pbrMetallicRoughness": {
        "baseColorFactor": [
          0.348984,
          0.376423,
          0.388982,
          1.0
        ],
        "metallicRoughnessTexture": {
          "index": 12
        }
      }
    },
    {
      "doubleSided": true,
      "name": "Concrete.003",
      "normalTexture": {
        "extensions": {
          "KHR_texture_transform": {
            "offset": [
              -0.057564,
              0.00165818
            ],
            "rotation": 0.0575959
          }
        },
        "index": 16,
        "texCoord": 2
      },
      "pbrMetallicRoughness": {
        "baseColorTexture": {
          "extensions": {
            "KHR_texture_transform": {
              "offset": [
                -0.057564,
                0.00165818
              ],
              "rotation": 0.0575959
            }
          },
          "index": 14
        },
        "metallicFactor": 0.0,
        "metallicRoughnessTexture": {
          "extensions": {
            "KHR_texture_transform": {
              "offset": [
                -0.057564,
                0.00165818
              ],
              "rotation": 0.0575959
            }
          },
          "index": 15,
          "texCoord": 1
        }
      }
    },
    {
      "doubleSided": true,
      "extensions": {
        "KHR_materials_specular": {
          "specularColorFactor": [
            1.0,
            1.0,
            1.0
          ],
          "specularFactor": 1.0,
          "specularTexture": {
            "index": 20,
            "texCoord": 3
          }
        }
      },
      "name": "Concrete",
      "normalTexture": {
        "index": 19,
        "texCoord": 2
      },
      "pbrMetallicRoughness": {
        "baseColorTexture": {
          "index": 17
        },
        "metallicFactor": 0.0,
        "metallicRoughnessTexture": {
          "index": 18,
          "texCoord": 1
        }
      }
    },
    {
      "doubleSided": true,
      "name": "proxy_mat_grey",
      "pbrMetallicRoughness": {
        "baseColorFactor": [
          0.145986,
          0.145986,
          0.145986,
          1.0
        ],
        "metallicFactor": 0.0,
        "roughnessFactor": 0.858209
      }
    }
  ],
  "meshes": [
    {
      "name": "Object_0",
      "primitives": [
        {
          "attributes": {
            "NORMAL": 1,
            "POSITION": 0,
            "TEXCOORD_0": 2,
            "TEXCOORD_1": 3,
            "TEXCOORD_2": 4,
            "TEXCOORD_3": 5
          },
          "indices": 6,
          "material": 0,
          "mode": 4
        }
      ]
    },
    {
      "name": "Object_1",
      "primitives": [
        {
          "attributes": {
            "NORMAL": 8,
            "POSITION": 7,
            "TANGENT": 9,
            "TEXCOORD_0": 10,
            "TEXCOORD_1": 11,
            "TEXCOORD_2": 12,
            "TEXCOORD_3": 13,
            "TEXCOORD_4": 14,
            "TEXCOORD_5": 15,
            "TEXCOORD_6": 16
          },
          "indices": 17,
          "material": 1,
          "mode": 4
        }
      ]
    },
    {
      "name": "Object_2",
      "primitives": [
        {
          "attributes": {
            "NORMAL": 19,
            "POSITION": 18,
            "TANGENT": 20,
            "TEXCOORD_0": 21,
            "TEXCOORD_1": 22,
            "TEXCOORD_2": 23,
            "TEXCOORD_3": 24,
            "TEXCOORD_4": 25,
            "TEXCOORD_5": 26,
            "TEXCOORD_6": 27
          },
          "indices": 28,
          "material": 1,
          "mode": 4
        }
      ]
    },
    {
      "name": "Object_3",
      "primitives": [
        {
          "attributes": {
            "NORMAL": 30,
            "POSITION": 29,
            "TEXCOORD_0": 31,
            "TEXCOORD_1": 32,
            "TEXCOORD_2": 33,
            "TEXCOORD_3": 34
          },
          "indices": 35,
          "material": 2,
          "mode": 4
        }
      ]
    },
    {
      "name": "Object_4",
      "primitives": [
        {
          "attributes": {
            "NORMAL": 37,
            "POSITION": 36,
            "TANGENT": 38,
            "TEXCOORD_0": 39,
            "TEXCOORD_1": 40,
            "TEXCOORD_2": 41,
            "TEXCOORD_3": 42,
            "TEXCOORD_4": 43,
            "TEXCOORD_5": 44,
            "TEXCOORD_6": 45
          },
          "indices": 46,
          "material": 3,
          "mode": 4
        }
      ]
    },
    {
      "name": "Object_5",
      "primitives": [
        {
          "attributes": {
            "NORMAL": 48,
            "POSITION": 47,
            "TANGENT": 49,
            "TEXCOORD_0": 50,
            "TEXCOORD_1": 51,
            "TEXCOORD_2": 52,
            "TEXCOORD_3": 53,
            "TEXCOORD_4": 54,
            "TEXCOORD_5": 55,
            "TEXCOORD_6": 56
          },
          "indices": 57,
          "material": 4,
          "mode": 4
        }
      ]
    },
    {
      "name": "Object_6",
      "primitives": [
        {
          "attributes": {
            "NORMAL": 59,
            "POSITION": 58,
            "TANGENT": 60,
            "TEXCOORD_0": 61,
            "TEXCOORD_1": 62,
            "TEXCOORD_2": 63,
            "TEXCOORD_3": 64,
            "TEXCOORD_4": 65,
            "TEXCOORD_5": 66,
            "TEXCOORD_6": 67
          },
          "indices": 68,
          "material": 5,
          "mode": 4
        }
      ]
    },
    {
      "name": "Object_7",
      "primitives": [
        {
          "attributes": {
            "NORMAL": 70,
            "POSITION": 69,
            "TEXCOORD_0": 71,
            "TEXCOORD_1": 72,
            "TEXCOORD_2": 73,
            "TEXCOORD_3": 74
          },
          "indices": 75,
          "material": 6,
          "mode": 4
        }
      ]
    },
    {
      "name": "Object_8",
      "primitives": [
        {
          "attributes": {
            "NORMAL": 77,
            "POSITION": 76,
            "TEXCOORD_0": 78,
            "TEXCOORD_1": 79,
            "TEXCOORD_2": 80,
            "TEXCOORD_3": 81
          },
          "indices": 82,
          "material": 7,
          "mode": 4
        }
      ]
    },
    {
      "name": "Object_9",
      "primitives": [
        {
          "attributes": {
            "NORMAL": 84,
            "POSITION": 83,
            "TEXCOORD_0": 85,
            "TEXCOORD_1": 86,
            "TEXCOORD_2": 87,
            "TEXCOORD_3": 88
          },
          "indices": 89,
          "material": 7,
          "mode": 4
        }
      ]
    },
    {
      "name": "Object_10",
      "primitives": [
        {
          "attributes": {
            "NORMAL": 91,
            "POSITION": 90,
            "TEXCOORD_0": 92,
            "TEXCOORD_1": 93,
            "TEXCOORD_2": 94,
            "TEXCOORD_3": 95
          },
          "indices": 96,
          "material": 7,
          "mode": 4
        }
      ]
    },
    {
      "name": "Object_11",
      "primitives": [
        {
          "attributes": {
            "NORMAL": 98,
            "POSITION": 97,
            "TEXCOORD_0": 99,
            "TEXCOORD_1": 100,
            "TEXCOORD_2": 101,
            "TEXCOORD_3": 102
          },
          "indices": 103,
          "material": 7,
          "mode": 4
        }
      ]
    },
    {
      "name": "Object_12",
      "primitives": [
        {
          "attributes": {
            "NORMAL": 105,
            "POSITION": 104,
            "TEXCOORD_0": 106,
            "TEXCOORD_1": 107,
            "TEXCOORD_2": 108,
            "TEXCOORD_3": 109
          },
          "indices": 110,
          "material": 7,
          "mode": 4
        }
      ]
    },
    {
      "name": "Object_13",
      "primitives": [
        {
          "attributes": {
            "NORMAL": 112,
            "POSITION": 111,
            "TEXCOORD_0": 113,
            "TEXCOORD_1": 114,
            "TEXCOORD_2": 115,
            "TEXCOORD_3": 116
          },
          "indices": 117,
          "material": 8,
          "mode": 4
        }
      ]
    },
    {
      "name": "Object_14",
      "primitives": [
        {
          "attributes": {
            "NORMAL": 119,
            "POSITION": 118,
            "TANGENT": 120,
            "TEXCOORD_0": 121,
            "TEXCOORD_1": 122,
            "TEXCOORD_2": 123,
            "TEXCOORD_3": 124,
            "TEXCOORD_4": 125,
            "TEXCOORD_5": 126
          },
          "indices": 127,
          "material": 9,
          "mode": 4
        }
      ]
    },
    {
      "name": "Object_15",
      "primitives": [
        {
          "attributes": {
            "NORMAL": 129,
            "POSITION": 128,
            "TANGENT": 130,
            "TEXCOORD_0": 131,
            "TEXCOORD_1": 132,
            "TEXCOORD_2": 133,
            "TEXCOORD_3": 134,
            "TEXCOORD_4": 135,
            "TEXCOORD_5": 136,
            "TEXCOORD_6": 137
          },
          "indices": 138,
          "material": 10,
          "mode": 4
        }
      ]
    },
    {
      "name": "Object_16",
      "primitives": [
        {
          "attributes": {
            "NORMAL": 140,
            "POSITION": 139,
            "TANGENT": 141,
            "TEXCOORD_0": 142,
            "TEXCOORD_1": 143,
            "TEXCOORD_2": 144,
            "TEXCOORD_3": 145,
            "TEXCOORD_4": 146,
            "TEXCOORD_5": 147,
            "TEXCOORD_6": 148
          },
          "indices": 149,
          "material": 11,
          "mode": 4
        }
      ]
    },
    {
      "name": "Object_17",
      "primitives": [
        {
          "attributes": {
            "NORMAL": 151,
            "POSITION": 150,
            "TEXCOORD_0": 152,
            "TEXCOORD_1": 153,
            "TEXCOORD_2": 154,
            "TEXCOORD_3": 155
          },
          "indices": 156,
          "material": 0,
          "mode": 4
        }
      ]
    },
    {
      "name": "Object_18",
      "primitives": [
        {
          "attributes": {
            "NORMAL": 158,
            "POSITION": 157,
            "TANGENT": 159,
            "TEXCOORD_0": 160,
            "TEXCOORD_1": 161,
            "TEXCOORD_2": 162,
            "TEXCOORD_3": 163,
            "TEXCOORD_4": 164,
            "TEXCOORD_5": 165,
            "TEXCOORD_6": 166
          },
          "indices": 167,
          "material": 1,
          "mode": 4
        }
      ]
    },
    {
      "name": "Object_19",
      "primitives": [
        {
          "attributes": {
            "NORMAL": 169,
            "POSITION": 168,
            "TANGENT": 170,
            "TEXCOORD_0": 171,
            "TEXCOORD_1": 172,
            "TEXCOORD_2": 173,
            "TEXCOORD_3": 174,
            "TEXCOORD_4": 175,
            "TEXCOORD_5": 176,
            "TEXCOORD_6": 177
          },
          "indices": 178,
          "material": 1,
          "mode": 4
        }
      ]
    },
    {
      "name": "Object_20",
      "primitives": [
        {
          "attributes": {
            "NORMAL": 180,
            "POSITION": 179,
            "TEXCOORD_0": 181,
            "TEXCOORD_1": 182,
            "TEXCOORD_2": 183,
            "TEXCOORD_3": 184
          },
          "indices": 185,
          "material": 2,
          "mode": 4
        }
      ]
    },
    {
      "name": "Object_21",
      "primitives": [
        {
          "attributes": {
            "NORMAL": 187,
            "POSITION": 186,
            "TEXCOORD_0": 188,
            "TEXCOORD_1": 189,
            "TEXCOORD_2": 190,
            "TEXCOORD_3": 191
          },
          "indices": 192,
          "material": 12,
          "mode": 4
        }
      ]
    },
    {
      "name": "Object_22",
      "primitives": [
        {
          "attributes": {
            "NORMAL": 194,
            "POSITION": 193,
            "TANGENT": 195,
            "TEXCOORD_0": 196,
            "TEXCOORD_1": 197,
            "TEXCOORD_2": 198,
            "TEXCOORD_3": 199,
            "TEXCOORD_4": 200,
            "TEXCOORD_5": 201
          },
          "indices": 202,
          "material": 9,
          "mode": 4
        }
      ]
    },
    {
      "name": "Object_23",
      "primitives": [
        {
          "attributes": {
            "NORMAL": 204,
            "POSITION": 203,
            "TANGENT": 205,
            "TEXCOORD_0": 206,
            "TEXCOORD_1": 207,
            "TEXCOORD_2": 208,
            "TEXCOORD_3": 209,
            "TEXCOORD_4": 210,
            "TEXCOORD_5": 211,
            "TEXCOORD_6": 212
          },
          "indices": 213,
          "material": 4,
          "mode": 4
        }
      ]
    },
    {
      "name": "Object_24",
      "primitives": [
        {
          "attributes": {
            "NORMAL": 215,
            "POSITION": 214,
            "TANGENT": 216,
            "TEXCOORD_0": 217,
            "TEXCOORD_1": 218,
            "TEXCOORD_2": 219,
            "TEXCOORD_3": 220,
            "TEXCOORD_4": 221,
            "TEXCOORD_5": 222,
            "TEXCOORD_6": 223
          },
          "indices": 224,
          "material": 5,
          "mode": 4
        }
      ]
    },
    {
      "name": "Object_25",
      "primitives": [
        {
          "attributes": {
            "NORMAL": 226,
            "POSITION": 225,
            "TEXCOORD_0": 227,
            "TEXCOORD_1": 228,
            "TEXCOORD_2": 229,
            "TEXCOORD_3": 230
          },
          "indices": 231,
          "material": 6,
          "mode": 4
        }
      ]
    },
    {
      "name": "Object_26",
      "primitives": [
        {
          "attributes": {
            "NORMAL": 233,
            "POSITION": 232,
            "TEXCOORD_0": 234,
            "TEXCOORD_1": 235,
            "TEXCOORD_2": 236,
            "TEXCOORD_3": 237
          },
          "indices": 238,
          "material": 7,
          "mode": 4
        }
      ]
    },
    {
      "name": "Object_27",
      "primitives": [
        {
          "attributes": {
            "NORMAL": 240,
            "POSITION": 239,
            "TEXCOORD_0": 241,
            "TEXCOORD_1": 242,
            "TEXCOORD_2": 243,
            "TEXCOORD_3": 244
          },
          "indices": 245,
          "material": 7,
          "mode": 4
        }
      ]
    },
    {
      "name": "Object_28",
      "primitives": [
        {
          "attributes": {
            "NORMAL": 247,
            "POSITION": 246,
            "TEXCOORD_0": 248,
            "TEXCOORD_1": 249,
            "TEXCOORD_2": 250,
            "TEXCOORD_3": 251
          },
          "indices": 252,
          "material": 7,
          "mode": 4
        }
      ]
    },
    {
      "name": "Object_29",
      "primitives": [
        {
          "attributes": {
            "NORMAL": 254,
            "POSITION": 253,
            "TEXCOORD_0": 255,
            "TEXCOORD_1": 256,
            "TEXCOORD_2": 257,
            "TEXCOORD_3": 258
          },
          "indices": 259,
          "material": 8,
          "mode": 4
        }
      ]
    },
    {
      "name": "Object_30",
      "primitives": [
        {
          "attributes": {
            "NORMAL": 261,
            "POSITION": 260,
            "TANGENT": 262,
            "TEXCOORD_0": 263,
            "TEXCOORD_1": 264,
            "TEXCOORD_2": 265,
            "TEXCOORD_3": 266,
            "TEXCOORD_4": 267,
            "TEXCOORD_5": 268,
            "TEXCOORD_6": 269
          },
          "indices": 270,
          "material": 10,
          "mode": 4
        }
      ]
    },
    {
      "name": "Object_31",
      "primitives": [
        {
          "attributes": {
            "NORMAL": 272,
            "POSITION": 271,
            "TANGENT": 273,
            "TEXCOORD_0": 274,
            "TEXCOORD_1": 275,
            "TEXCOORD_2": 276,
            "TEXCOORD_3": 277,
            "TEXCOORD_4": 278,
            "TEXCOORD_5": 279,
            "TEXCOORD_6": 280
          },
          "indices": 281,
          "material": 11,
          "mode": 4
        }
      ]
    }
  ],
  "nodes": [
    {
      "children": [
        1
      ],
      "matrix": [
        1.0,
        0.0,
        0.0,
        0.0,
        0.0,
        2.220446049250313e-16,
        -1.0,
        0.0,
        0.0,
        1.0,
        2.220446049250313e-16,
        0.0,
        0.0,
        0.0,
        0.0,
        1.0
      ],
      "name": "Sketchfab_model"
    },
    {
      "children": [
        2
      ],
      "name": "root"
    },
    {
      "children": [
        3,
        21
      ],
      "matrix": [
        1.0,
        0.0,
        0.0,
        0.0,
        0.0,
        2.220446049250313e-16,
        1.0,
        0.0,
        0.0,
        -1.0,
        2.220446049250313e-16,
        0.0,
        0.0,
        0.0,
        0.0,
        1.0
      ],
      "name": "GLTF_SceneRootNode"
    },
    {
      "children": [
        4,
        5,
        6,
        7,
        8,
        9,
        10,
        11,
        12,
        13,
        14,
        15,
        16,
        17,
        18,
        19,
        20
      ],
      "name": "Plane_0"
    },
    {
      "mesh": 0,
      "name": "Object_4"
    },
    {
      "mesh": 1,
      "name": "Object_5"
    },
    {
      "mesh": 2,
      "name": "Object_6"
    },
    {
      "mesh": 3,
      "name": "Object_7"
    },
    {
      "mesh": 4,
      "name": "Object_8"
    },
    {
      "mesh": 5,
      "name": "Object_9"
    },
    {
      "mesh": 6,
      "name": "Object_10"
    },
    {
      "mesh": 7,
      "name": "Object_11"
    },
    {
      "mesh": 8,
      "name": "Object_12"
    },
    {
      "mesh": 9,
      "name": "Object_13"
    },
    {
      "mesh": 10,
      "name": "Object_14"
    },
    {
      "mesh": 11,
      "name": "Object_15"
    },
    {
      "mesh": 12,
      "name": "Object_16"
    },
    {
      "mesh": 13,
      "name": "Object_17"
    },
    {
      "mesh": 14,
      "name": "Object_18"
    },
    {
      "mesh": 15,
      "name": "Object_19"
    },
    {
      "mesh": 16,
      "name": "Object_20"
    },
    {
      "children": [
        22,
        23,
        24,
        25,
        26,
        27,
        28,
        29,
        30,
        31,
        32,
        33,
        34,
        35,
        36
      ],
      "name": "Plane.001_1"
    },
    {
      "mesh": 17,
      "name": "Object_22"
    },
    {
      "mesh": 18,
      "name": "Object_23"
    },
    {
      "mesh": 19,
      "name": "Object_24"
    },
    {
      "mesh": 20,
      "name": "Object_25"
    },
    {
      "mesh": 21,
      "name": "Object_26"
    },
    {
      "mesh": 22,
      "name": "Object_27"
    },
    {
      "mesh": 23,
      "name": "Object_28"
    },
    {
      "mesh": 24,
      "name": "Object_29"
    },
    {
      "mesh": 25,
      "name": "Object_30"
    },
    {
      "mesh": 26,
      "name": "Object_31"
    },
    {
      "mesh": 27,
      "name": "Object_32"
    },
    {
      "mesh": 28,
      "name": "Object_33"
    },
    {
      "mesh": 29,
      "name": "Object_34"
    },
    {
      "mesh": 30,
      "name": "Object_35"
    },
    {
      "mesh": 31,
      "name": "Object_36"
    }
  ],
  "samplers": [
    {
      "magFilter": 9729,
      "minFilter": 9987,
      "wrapS": 10497,
      "wrapT": 10497
    }
  ],
  "scene": 0,
  "scenes": [
    {
      "name": "Sketchfab_Scene",
      "nodes": [
        0
      ]
    }
  ],
  "textures": [
    {
      "sampler": 0,
      "source": 0
    },
    {
      "sampler": 0,
      "source": 1
    },
    {
      "sampler": 0,
      "source": 2
    },
    {
      "sampler": 0,
      "source": 3
    },
    {
      "sampler": 0,
      "source": 4
    },
    {
      "sampler": 0,
      "source": 5
    },
    {
      "sampler": 0,
      "source": 6
    },
    {
      "sampler": 0,
      "source": 7
    },
    {
      "sampler": 0,
      "source": 8
    },
    {
      "sampler": 0,
      "source": 9
    },
    {
      "sampler": 0,
      "source": 10
    },
    {
      "sampler": 0,
      "source": 11
    },
    {
      "sampler": 0,
      "source": 12
    },
    {
      "sampler": 0,
      "source": 13
    },
    {
      "sampler": 0,
      "source": 14
    },
    {
      "sampler": 0,
      "source": 15
    },
    {
      "sampler": 0,
      "source": 16
    },
    {
      "sampler": 0,
      "source": 17
    },
    {
      "sampler": 0,
      "source": 18
    },
    {
      "sampler": 0,
      "source": 19
    },
    {
      "sampler": 0,
      "source": 20
    }
  ]
}
